<?xml version="1.0" encoding="UTF-8"?>
<svg width="121px" height="144px" viewBox="0 0 121 144" version="1.1" xmlns="http://www.w3.org/2000/svg" xmlns:xlink="http://www.w3.org/1999/xlink">
    <!-- Generator: Sketch 52.6 (67491) - http://www.bohemiancoding.com/sketch -->
    <title>Poussin Gris</title>
    <desc>Created with Sketch.</desc>
    <g id="Assets" stroke="none" stroke-width="1" fill="none" fill-rule="evenodd">
        <g id="Animaux" transform="translate(-319.000000, -59.000000)">
            <g id="Poussin-Gris" transform="translate(319.000000, 59.000000)">
                <g id="Group-12">
                    <g id="Group-9">
                        <polygon id="Fill-1" fill="#FFD07C" points="113.252897 0.530887085 88.4892441 11.9180458 106.26028 27.1235956"></polygon>
                        <polygon id="Fill-2" fill="#FFD07C" points="40.0862986 143.478731 60.0589581 143.478731 40.0862986 123.33414"></polygon>
                        <g id="Group-8" transform="translate(0.000000, 2.135557)">
                            <g id="Group-5" fill="#F9F9F9">
                                <path d="M60.0586947,121.198955 L5.26830193e-05,121.198955 L5.26830193e-05,60.6233092 C5.26830193e-05,27.1680177 26.8894657,0.0476634686 60.0586947,0.0476634686 C93.2279236,0.0476634686 120.117337,27.1680177 120.117337,60.6233092 C120.117337,94.0780694 93.2279236,121.198955 60.0586947,121.198955" id="Fill-3"></path>
                            </g>
                            <path d="M77.5606259,35.1172428 C77.5606259,41.8783351 72.1263724,47.3593683 65.422985,47.3593683 C58.7195977,47.3593683 53.2853442,41.8783351 53.2853442,35.1172428 C53.2853442,28.3556192 58.7195977,22.8751173 65.422985,22.8751173 C72.1263724,22.8751173 77.5606259,28.3556192 77.5606259,35.1172428" id="Fill-6" fill="#18273A"></path>
                        </g>
                    </g>
                </g>
            </g>
        </g>
    </g>
</svg>