<?xml version="1.0" encoding="UTF-8"?>
<svg width="98px" height="117px" viewBox="0 0 98 117" version="1.1" xmlns="http://www.w3.org/2000/svg" xmlns:xlink="http://www.w3.org/1999/xlink">
    <!-- Generator: Sketch 57.1 (83088) - https://sketch.com -->
    <title>Group 13 Copy</title>
    <desc>Created with Sketch.</desc>
    <g id="FOOTER" stroke="none" stroke-width="1" fill="none" fill-rule="evenodd">
        <g id="Home-page---Parents-/-Pro-Copy" transform="translate(-1244.000000, -2479.000000)">
            <g id="Group-13-Copy" transform="translate(1293.000000, 2537.500000) scale(-1, 1) translate(-1293.000000, -2537.500000) translate(1244.000000, 2479.000000)">
                <g id="Group-12">
                    <g id="Group-9">
                        <polygon id="Fill-1" fill="#FFD07C" points="92.3995579 0.431345756 72.1956544 9.68341218 86.6944965 22.0379214"></polygon>
                        <polygon id="Fill-2" fill="#FFD07C" points="32.7051789 116.576469 49.0002579 116.576469 32.7051789 100.208989"></polygon>
                        <g id="Group-8" transform="translate(0.000000, 1.735140)">
                            <g id="Group-5" fill="#FFFFFF">
                                <path d="M49.000043,98.4741509 L4.29824561e-05,98.4741509 L4.29824561e-05,49.2564387 C4.29824561e-05,22.0740144 21.9382886,0.0387265683 49.000043,0.0387265683 C76.0617974,0.0387265683 98.000043,22.0740144 98.000043,49.2564387 C98.000043,76.4384314 76.0617974,98.4741509 49.000043,98.4741509" id="Fill-3"></path>
                            </g>
                            <path d="M63.2793307,28.5327598 C63.2793307,34.0261472 58.8456904,38.4794867 53.3766026,38.4794867 C47.9075149,38.4794867 43.4738746,34.0261472 43.4738746,28.5327598 C43.4738746,23.0389406 47.9075149,18.5860328 53.3766026,18.5860328 C58.8456904,18.5860328 63.2793307,23.0389406 63.2793307,28.5327598" id="Fill-6" fill="#18273A"></path>
                        </g>
                    </g>
                </g>
            </g>
        </g>
    </g>
</svg>