<?xml version="1.0" encoding="UTF-8"?>
<svg width="109px" height="275px" viewBox="0 0 109 275" version="1.1" xmlns="http://www.w3.org/2000/svg" xmlns:xlink="http://www.w3.org/1999/xlink">
    <!-- Generator: Sketch 56.3 (81716) - https://sketch.com -->
    <title>Group 4 Copy</title>
    <desc>Created with Sketch.</desc>
    <g id="FOOTER" stroke="none" stroke-width="1" fill="none" fill-rule="evenodd">
        <g id="Contact" transform="translate(-1327.000000, -354.000000)">
            <g id="Group-4-Copy" transform="translate(1464.500000, 527.000000) rotate(-90.000000) translate(-1464.500000, -527.000000) translate(1253.000000, 367.000000)">
                <polygon id="Fill-3" fill="#FFD07C" transform="translate(333.149514, 29.100392) rotate(-243.000000) translate(-333.149514, -29.100392) " points="351.382807 50.6066499 341.716255 55.8273482 314.916221 7.59413336 324.582166 2.37343511"></polygon>
                <polygon id="Fill-9" fill="#22693D" transform="translate(363.137373, 105.418543) rotate(-243.000000) translate(-363.137373, -105.418543) " points="334.675648 105.641419 336.728784 94.9030196 391.599099 105.19627 389.545962 115.934067"></polygon>
                <polygon id="Fill-11" fill="#AEE9F9" transform="translate(135.272789, 87.170635) rotate(-243.000000) translate(-135.272789, -87.170635) " points="135.498693 115.212032 124.599642 113.189217 135.046884 59.1292381 145.945936 61.1520534"></polygon>
                <path d="M287.778205,76.4298377 C287.778205,86.2973346 279.646152,94.2963309 269.615872,94.2963309 C259.584985,94.2963309 251.452932,86.2973346 251.452932,76.4298377 C251.452932,66.5623409 259.584985,58.5633446 269.615872,58.5633446 C279.646152,58.5633446 287.778205,66.5623409 287.778205,76.4298377" id="Fill-17" fill="#FFCFC5"></path>
            </g>
        </g>
    </g>
</svg>