<?xml version="1.0" encoding="UTF-8"?>
<svg width="417px" height="164px" viewBox="0 0 417 164" version="1.1" xmlns="http://www.w3.org/2000/svg" xmlns:xlink="http://www.w3.org/1999/xlink">
    <!-- Generator: Sketch 56.3 (81716) - https://sketch.com -->
    <title>Group 4</title>
    <desc>Created with Sketch.</desc>
    <g id="FOOTER" stroke="none" stroke-width="1" fill="none" fill-rule="evenodd">
        <g id="Contact" transform="translate(-398.000000, 0.000000)">
            <g id="Group-4" transform="translate(388.000000, -252.000000)">
                <polygon id="Fill-4" fill="#FFD07C" transform="translate(25.470077, 266.506618) rotate(-243.000000) translate(-25.470077, -266.506618) " points="52.7764675 258.181828 53.9318025 269.059698 -1.83631338 274.831408 -2.99164833 263.952935"></polygon>
                <polygon id="Fill-6" fill="#FFCFC5" transform="translate(320.366652, 387.280755) rotate(-243.000000) translate(-320.366652, -387.280755) " points="295.907357 401.651484 303.359572 409.626243 344.825948 372.910026 337.372512 364.935266"></polygon>
                <polygon id="Fill-10" fill="#22693D" transform="translate(143.393128, 328.489241) rotate(-243.000000) translate(-143.393128, -328.489241) " points="163.745244 309.21078 169.631281 318.312769 123.04041 347.767701 117.154975 338.665712"></polygon>
                <path d="M282.954824,293.677823 C282.954824,303.54532 274.823377,311.544316 264.792491,311.544316 C254.761604,311.544316 246.629551,303.54532 246.629551,293.677823 C246.629551,283.810326 254.761604,275.81133 264.792491,275.81133 C274.823377,275.81133 282.954824,283.810326 282.954824,293.677823" id="Fill-13" fill="#FFD07C"></path>
                <path d="M427.003923,311.892383 C427.003923,321.75988 418.87187,329.758876 408.840983,329.758876 C398.810097,329.758876 390.67865,321.75988 390.67865,311.892383 C390.67865,302.024886 398.810097,294.02589 408.840983,294.02589 C418.87187,294.02589 427.003923,302.024886 427.003923,311.892383" id="Fill-19" fill="#22693D"></path>
            </g>
        </g>
    </g>
</svg>