<?xml version="1.0" encoding="UTF-8"?>
<svg width="56px" height="56px" viewBox="0 0 56 56" version="1.1" xmlns="http://www.w3.org/2000/svg" xmlns:xlink="http://www.w3.org/1999/xlink">
    <!-- Generator: Sketch 56.3 (81716) - https://sketch.com -->
    <title>Group 29 Copy 3</title>
    <desc>Created with Sketch.</desc>
    <g id="FOOTER" stroke="none" stroke-width="1" fill="none" fill-rule="evenodd">
        <g id="À-propos" transform="translate(-160.000000, -1358.000000)">
            <g id="Group-23" transform="translate(160.000000, 1113.000000)">
                <g id="Group-29-Copy-3" transform="translate(0.000000, 245.000000)">
                    <g id="Group-28">
                        <circle id="Oval" fill="#FFFFFF" fill-rule="nonzero" cx="28" cy="28" r="28"></circle>
                        <g id="Group-7" transform="translate(12.000000, 19.000000)" stroke="#FA9682" stroke-width="2">
                            <path d="M16.7316,18 C23.0516,18 28.5856,15.202 31.7316,11 C28.5856,6.799 23.0516,4 16.7316,4 C10.4116,4 4.8776,6.799 1.7316,11 C4.8776,15.202 10.4116,18 16.7316,18 Z" id="Stroke-1"></path>
                            <path d="M19.7316,11 C19.7316,12.657 18.3886,14 16.7316,14 C15.0746,14 13.7316,12.657 13.7316,11 C13.7316,9.343 15.0746,8 16.7316,8 C18.3886,8 19.7316,9.343 19.7316,11 Z" id="Stroke-3"></path>
                            <path d="M32.7316,6 C29.3756,2.398 23.4726,0 16.7316,0 C9.9906,0 4.0876,2.398 0.7316,6" id="Stroke-5"></path>
                        </g>
                    </g>
                </g>
            </g>
        </g>
    </g>
</svg>