<?xml version="1.0" encoding="UTF-8"?>
<svg width="311px" height="329px" viewBox="0 0 311 329" version="1.1" xmlns="http://www.w3.org/2000/svg" xmlns:xlink="http://www.w3.org/1999/xlink">
    <!-- Generator: Sketch 56.3 (81716) - https://sketch.com -->
    <title>Group 4 Copy 3</title>
    <desc>Created with Sketch.</desc>
    <g id="FOOTER" stroke="none" stroke-width="1" fill="none" fill-rule="evenodd">
        <g id="À-propos" transform="translate(-33.000000, -552.000000)">
            <g id="Group-4-Copy-3" transform="translate(187.500000, 709.000000) rotate(-90.000000) translate(-187.500000, -709.000000) translate(15.000000, 549.000000)">
                <polygon id="Fill-3" fill="#FFD07C" transform="translate(92.149514, 29.100392) rotate(-243.000000) translate(-92.149514, -29.100392) " points="110.382807 50.6066499 100.716255 55.8273482 73.9162214 7.59413336 83.5821658 2.37343511"></polygon>
                <polygon id="Fill-6" fill="#FFCFC5" transform="translate(74.366652, 287.280755) rotate(-243.000000) translate(-74.366652, -287.280755) " points="49.9073572 301.651484 57.3595722 309.626243 98.8259477 272.910026 91.3725118 264.935266"></polygon>
                <polygon id="Fill-7" fill="#18273A" transform="translate(319.297273, 89.891948) rotate(-243.000000) translate(-319.297273, -89.891948) " points="294.889509 103.912647 291.280262 93.765578 343.705036 75.8712495 347.314284 86.0183181"></polygon>
                <polygon id="Fill-9" fill="#22693D" transform="translate(122.137373, 105.418543) rotate(-243.000000) translate(-122.137373, -105.418543) " points="93.6756479 105.641419 95.7287843 94.9030196 150.599099 105.19627 148.545962 115.934067"></polygon>
                <path d="M36.954824,193.677823 C36.954824,203.54532 28.8233774,211.544316 18.7924909,211.544316 C8.76160442,211.544316 0.629551398,203.54532 0.629551398,193.677823 C0.629551398,183.810326 8.76160442,175.81133 18.7924909,175.81133 C28.8233774,175.81133 36.954824,183.810326 36.954824,193.677823" id="Fill-13" fill="#FFD07C"></path>
                <path d="M251.692172,23.4958142 C251.692172,33.3633111 243.560119,41.3623073 233.529839,41.3623073 C223.498952,41.3623073 215.366899,33.3633111 215.366899,23.4958142 C215.366899,13.6283173 223.498952,5.62872441 233.529839,5.62872441 C243.560119,5.62872441 251.692172,13.6283173 251.692172,23.4958142" id="Fill-15" fill="#AEE9F9"></path>
                <path d="M46.778205,76.4298377 C46.778205,86.2973346 38.646152,94.2963309 28.615872,94.2963309 C18.5849855,94.2963309 10.4529324,86.2973346 10.4529324,76.4298377 C10.4529324,66.5623409 18.5849855,58.5633446 28.615872,58.5633446 C38.646152,58.5633446 46.778205,66.5623409 46.778205,76.4298377" id="Fill-17" fill="#FFCFC5"></path>
                <path d="M181.003923,211.892383 C181.003923,221.75988 172.87187,229.758876 162.840983,229.758876 C152.810097,229.758876 144.67865,221.75988 144.67865,211.892383 C144.67865,202.024886 152.810097,194.02589 162.840983,194.02589 C172.87187,194.02589 181.003923,202.024886 181.003923,211.892383" id="Fill-19" fill="#AEE9F9"></path>
            </g>
        </g>
    </g>
</svg>