<?xml version="1.0" encoding="UTF-8"?>
<svg width="156px" height="375px" viewBox="0 0 156 375" version="1.1" xmlns="http://www.w3.org/2000/svg" xmlns:xlink="http://www.w3.org/1999/xlink">
    <!-- Generator: Sketch 56.3 (81716) - https://sketch.com -->
    <title>Group 4 Copy 6</title>
    <desc>Created with Sketch.</desc>
    <g id="FOOTER" stroke="none" stroke-width="1" fill="none" fill-rule="evenodd">
        <g id="À-propos" transform="translate(0.000000, -2053.000000)">
            <g id="Group-4-Copy-6" transform="translate(-24.500000, 2248.500000) rotate(-90.000000) translate(24.500000, -2248.500000) translate(-291.000000, 2064.000000)">
                <polygon id="Fill-4" fill="#FFD07C" transform="translate(103.046905, 199.359510) rotate(-243.000000) translate(-103.046905, -199.359510) " points="130.353295 191.03472 131.50863 201.91259 75.7405146 207.6843 74.5851797 196.805827"></polygon>
                <polygon id="Fill-6" fill="#FFCFC5" transform="translate(355.366652, 336.280755) rotate(-243.000000) translate(-355.366652, -336.280755) " points="330.907357 350.651484 338.359572 358.626243 379.825948 321.910026 372.372512 313.935266"></polygon>
                <polygon id="Fill-10" fill="#22693D" transform="translate(221.201096, 292.674920) rotate(-243.000000) translate(-221.201096, -292.674920) " points="241.553212 273.396459 247.439249 282.498448 200.848379 311.95338 194.962943 302.851391"></polygon>
                <path d="M317.954824,242.677823 C317.954824,252.54532 309.823377,260.544316 299.792491,260.544316 C289.761604,260.544316 281.629551,252.54532 281.629551,242.677823 C281.629551,232.810326 289.761604,224.81133 299.792491,224.81133 C309.823377,224.81133 317.954824,232.810326 317.954824,242.677823" id="Fill-13" fill="#FFD07C"></path>
                <path d="M462.003923,260.892383 C462.003923,270.75988 453.87187,278.758876 443.840983,278.758876 C433.810097,278.758876 425.67865,270.75988 425.67865,260.892383 C425.67865,251.024886 433.810097,243.02589 443.840983,243.02589 C453.87187,243.02589 462.003923,251.024886 462.003923,260.892383" id="Fill-19" fill="#AEE9F9"></path>
            </g>
        </g>
    </g>
</svg>