<?xml version="1.0" encoding="UTF-8"?>
<svg width="139px" height="525px" viewBox="0 0 139 525" version="1.1" xmlns="http://www.w3.org/2000/svg" xmlns:xlink="http://www.w3.org/1999/xlink">
    <!-- Generator: Sketch 56.3 (81716) - https://sketch.com -->
    <title>Group 4 Copy 4</title>
    <desc>Created with Sketch.</desc>
    <g id="FOOTER" stroke="none" stroke-width="1" fill="none" fill-rule="evenodd">
        <g id="À-propos" transform="translate(-1301.000000, -1654.000000)">
            <g id="Group-4-Copy-4" transform="translate(1472.500000, 1920.500000) rotate(-90.000000) translate(-1472.500000, -1920.500000) translate(1206.000000, 1736.000000)">
                <polygon id="Fill-1" fill="#22693D" transform="translate(24.592826, 72.271834) rotate(-243.000000) translate(-24.592826, -72.271834) " points="5.91481863 54.3078138 24.4783484 90.2358537 43.2708332 54.3078138"></polygon>
                <polygon id="Fill-3" fill="#FFD07C" transform="translate(373.149514, 78.100392) rotate(-243.000000) translate(-373.149514, -78.100392) " points="391.382807 99.6066499 381.716255 104.827348 354.916221 56.5941334 364.582166 51.3734351"></polygon>
                <polygon id="Fill-9" fill="#22693D" transform="translate(403.137373, 154.418543) rotate(-243.000000) translate(-403.137373, -154.418543) " points="374.675648 154.641419 376.728784 143.90302 431.599099 154.19627 429.545962 164.934067"></polygon>
                <polygon id="Fill-11" fill="#AEE9F9" transform="translate(175.272789, 136.170635) rotate(-243.000000) translate(-175.272789, -136.170635) " points="175.498693 164.212032 164.599642 162.189217 175.046884 108.129238 185.945936 110.152053"></polygon>
                <polygon id="Fill-12" fill="#AEE9F9" transform="translate(278.800422, 32.811199) rotate(-243.000000) translate(-278.800422, -32.811199) " points="257.582005 14.4090319 252.117554 23.7930112 300.019441 51.2133655 305.483289 41.8293862"></polygon>
                <path d="M532.692172,72.4958142 C532.692172,82.3633111 524.560119,90.3623073 514.529839,90.3623073 C504.498952,90.3623073 496.366899,82.3633111 496.366899,72.4958142 C496.366899,62.6283173 504.498952,54.6287244 514.529839,54.6287244 C524.560119,54.6287244 532.692172,62.6283173 532.692172,72.4958142" id="Fill-15" fill="#FFFFFF"></path>
                <path d="M327.778205,125.429838 C327.778205,135.297335 319.646152,143.296331 309.615872,143.296331 C299.584985,143.296331 291.452932,135.297335 291.452932,125.429838 C291.452932,115.562341 299.584985,107.563345 309.615872,107.563345 C319.646152,107.563345 327.778205,115.562341 327.778205,125.429838" id="Fill-17" fill="#FFCFC5"></path>
            </g>
        </g>
    </g>
</svg>