<?xml version="1.0" encoding="UTF-8"?>
<svg width="56px" height="56px" viewBox="0 0 56 56" version="1.1" xmlns="http://www.w3.org/2000/svg" xmlns:xlink="http://www.w3.org/1999/xlink">
    <!-- Generator: Sketch 56.3 (81716) - https://sketch.com -->
    <title>Group 29</title>
    <desc>Created with Sketch.</desc>
    <g id="FOOTER" stroke="none" stroke-width="1" fill="none" fill-rule="evenodd">
        <g id="À-propos" transform="translate(-160.000000, -1113.000000)">
            <g id="Group-23" transform="translate(160.000000, 1113.000000)">
                <g id="Group-29">
                    <g id="Group-28">
                        <circle id="Oval" fill="#FFFFFF" fill-rule="nonzero" cx="28" cy="28" r="28"></circle>
                        <path d="M28,14.1245 L28,11.9995" id="Stroke-3" stroke="#FA9682" stroke-width="2" stroke-linejoin="round"></path>
                        <path d="M18.4736,19.5 L16.7416,18.5" id="Stroke-6" stroke="#FA9682" stroke-width="2" stroke-linejoin="round"></path>
                        <path d="M39.2583,31.5 L37.5263,30.5" id="Stroke-8" stroke="#FA9682" stroke-width="2" stroke-linejoin="round"></path>
                        <path d="M22.5,15.4736 L21.5,13.7416" id="Stroke-10" stroke="#FA9682" stroke-width="2" stroke-linejoin="round"></path>
                        <path d="M28,14 L28,12" id="Stroke-12" stroke="#FA9682" stroke-width="2" stroke-linejoin="round"></path>
                        <path d="M33.5,15.4736 L34.5,13.7416" id="Stroke-14" stroke="#FA9682" stroke-width="2" stroke-linejoin="round"></path>
                        <path d="M37.5264,19.5 L39.2584,18.5" id="Stroke-16" stroke="#FA9682" stroke-width="2" stroke-linejoin="round"></path>
                        <path d="M16.7417,31.5 L18.4737,30.5" id="Stroke-18" stroke="#FA9682" stroke-width="2" stroke-linejoin="round"></path>
                        <path d="M39,25 L41,25" id="Stroke-20" stroke="#FA9682" stroke-width="2" stroke-linejoin="round"></path>
                        <path d="M15,25 L17,25" id="Stroke-22" stroke="#FA9682" stroke-width="2" stroke-linejoin="round"></path>
                        <path d="M36,25 C36,20.582 32.418,17 28,17 C23.582,17 20,20.582 20,25 C20,28.014 21.668,30.636 24.13,32 L24,32 L24,41 L26,43 L30,43 L32,41 L32,32 L31.87,32 C34.332,30.636 36,28.014 36,25 Z" id="Stroke-24" stroke="#FA9682" stroke-width="2" stroke-linejoin="round"></path>
                        <path d="M24,25 C24,22.789 25.789,21 28,21" id="Stroke-26" stroke="#FA9682" stroke-width="2" stroke-linejoin="round"></path>
                        <path d="M21,35 L35,35" id="Stroke-1" stroke="#FA9682" stroke-width="2" stroke-linejoin="round"></path>
                        <path d="M21,39 L35,39" id="Stroke-2" stroke="#FA9682" stroke-width="2" stroke-linejoin="round"></path>
                    </g>
                </g>
            </g>
        </g>
    </g>
</svg>