<?xml version="1.0" encoding="UTF-8"?>
<svg width="224px" height="223px" viewBox="0 0 224 223" version="1.1" xmlns="http://www.w3.org/2000/svg" xmlns:xlink="http://www.w3.org/1999/xlink">
    <!-- Generator: Sketch 52.6 (67491) - http://www.bohemiancoding.com/sketch -->
    <title>Coq</title>
    <desc>Created with Sketch.</desc>
    <defs>
        <polygon id="path-1" points="0.333249675 0.333724054 55.8950652 0.333724054 55.8950652 56.0030257 0.333249675 56.0030257"></polygon>
    </defs>
    <g id="Assets" stroke="none" stroke-width="1" fill="none" fill-rule="evenodd">
        <g id="Animaux" transform="translate(-51.000000, -37.000000)">
            <g id="Coq" transform="translate(163.000000, 148.500000) scale(-1, 1) translate(-163.000000, -148.500000) translate(51.000000, 37.000000)">
                <path d="M70.4003995,95.2640818 C70.4003995,102.205083 64.7842822,107.832038 57.8566488,107.832038 C50.9290154,107.832038 45.312898,102.205083 45.312898,95.2640818 C45.312898,88.3230803 50.9290154,82.6961257 57.8566488,82.6961257 C64.7842822,82.6961257 70.4003995,88.3230803 70.4003995,95.2640818" id="Fill-1" fill="#202E3A"></path>
                <path d="M125.677352,95.2640818 C125.677352,102.205083 120.061234,107.832038 113.133601,107.832038 C106.205968,107.832038 100.58985,102.205083 100.58985,95.2640818 C100.58985,88.3230803 106.205968,82.6961257 113.133601,82.6961257 C120.061234,82.6961257 125.677352,88.3230803 125.677352,95.2640818" id="Fill-3" fill="#202E3A"></path>
                <path d="M168.605294,0 L168.605294,55.6693691 L113.043478,55.6693691 C113.043478,24.9240454 137.919184,0 168.605294,0" id="Fill-5" fill="#FFCFC5"></path>
                <path d="M223.909642,0 L223.909642,55.6693691 L168.347826,55.6693691 C168.347826,24.9240454 193.223532,0 223.909642,0" id="Fill-5-Copy-2" fill="#FFCFC5"></path>
                <g id="Group-11" transform="translate(22.896815, 166.663318)">
                    <mask id="mask-2" fill="white">
                        <use xlink:href="#path-1"></use>
                    </mask>
                    <g id="Clip-10"></g>
                    <path d="M55.8950652,0.333724054 L55.8950652,56.0030932 L0.333249675,56.0030932 C0.333249675,25.2577694 25.2089557,0.333724054 55.8950652,0.333724054" id="Fill-9" fill="#FFCFC5" mask="url(#mask-2)"></path>
                </g>
                <polygon id="Fill-12" fill="#FFD07C" points="78.7920486 122.869255 6.73435747e-05 144.798151 78.7920486 166.996941"></polygon>
            </g>
        </g>
    </g>
</svg>