<?xml version="1.0" encoding="UTF-8"?>
<svg width="338px" height="189px" viewBox="0 0 338 189" version="1.1" xmlns="http://www.w3.org/2000/svg" xmlns:xlink="http://www.w3.org/1999/xlink">
    <!-- Generator: Sketch 52.6 (67491) - http://www.bohemiancoding.com/sketch -->
    <title>Ensemble 1</title>
    <desc>Created with Sketch.</desc>
    <g id="Assets" stroke="none" stroke-width="1" fill="none" fill-rule="evenodd">
        <g id="Décors" transform="translate(-743.000000, -426.000000)">
            <g id="Ensemble-1" transform="translate(743.000000, 426.000000)">
                <polygon id="Fill-1" fill="#FFFFFF" points="0.117572693 188.709011 93.0341984 188.709011 93.0341984 99.548083 0.117572693 99.548083"></polygon>
                <polygon id="Fill-2" fill="#FFFFFF" points="97.9157641 188.709011 242.006701 188.709011 242.006701 124.660834 97.9157641 124.660834"></polygon>
                <polygon id="Fill-3" fill="#FFD07C" points="26.5303046 188.709011 66.6214665 188.709011 66.6214665 140.185936 26.5303046 140.185936"></polygon>
                <polygon id="Fill-4" fill="#FFD07C" points="163.157012 188.709011 176.765453 188.709011 176.765453 164.44783 163.157012 164.44783"></polygon>
                <polygon id="Fill-6" fill="#FFCFC5" points="0.117572693 99.5259023 93.0341984 99.5259023 46.5755285 35.6938268"></polygon>
                <polygon id="Fill-7" fill="#FFFFFF" points="244.129204 188.709011 337.045115 188.709011 337.045115 63.8320755 244.129204 63.8320755"></polygon>
                <polygon id="Fill-8" fill="#AEE9F9" points="270.541935 188.709011 310.633097 188.709011 310.633097 148.671679 270.541935 148.671679"></polygon>
                <polygon id="Fill-9" fill="#FFD07C" points="309.558991 97.1624038 327.010362 97.1624038 327.010362 76.0407623 309.558991 76.0407623"></polygon>
                <polygon id="Fill-10" fill="#FFD07C" points="309.558991 130.889275 327.010362 130.889275 327.010362 109.767634 309.558991 109.767634"></polygon>
                <polygon id="Fill-11" fill="#FFCFC5" points="290.586659 7.13207518e-05 244.129418 63.8321468 337.045329 63.8321468 290.587374 7.13207518e-05"></polygon>
                <polygon id="Fill-12" fill="#FFCFC5" points="133.761421 80.742583 97.6795893 124.661191 169.843252 124.661191"></polygon>
                <polygon id="Fill-13" fill="#FFCFC5" points="205.925012 80.742583 169.843181 124.661191 242.006844 124.661191"></polygon>
                <path d="M150.728444,150.619164 C150.728444,159.97716 143.131856,167.563549 133.761278,167.563549 C124.3907,167.563549 116.794111,159.97716 116.794111,150.619164 C116.794111,141.261168 124.3907,133.674779 133.761278,133.674779 C143.131856,133.674779 150.728444,141.261168 150.728444,150.619164" id="Fill-14" fill="#AEE9F9"></path>
                <path d="M222.892036,150.619164 C222.892036,159.97716 215.295447,167.563549 205.924869,167.563549 C196.554291,167.563549 188.957703,159.97716 188.957703,150.619164 C188.957703,141.261168 196.554291,133.674779 205.924869,133.674779 C215.295447,133.674779 222.892036,141.261168 222.892036,150.619164" id="Fill-16" fill="#AEE9F9"></path>
            </g>
        </g>
    </g>
</svg>