<?xml version="1.0" encoding="UTF-8"?>
<svg width="375px" height="308px" viewBox="0 0 375 308" version="1.1" xmlns="http://www.w3.org/2000/svg" xmlns:xlink="http://www.w3.org/1999/xlink">
    <!-- Generator: Sketch 56.3 (81716) - https://sketch.com -->
    <title>Group 4 Copy 6</title>
    <desc>Created with Sketch.</desc>
    <g id="FOOTER" stroke="none" stroke-width="1" fill="none" fill-rule="evenodd">
        <g id="À-propos" transform="translate(-1010.000000, -1293.000000)" fill="#FFE2DC">
            <g id="Group-4-Copy-6" transform="translate(1005.000000, 1280.000000)">
                <polygon id="Fill-3" transform="translate(291.149514, 78.100392) rotate(-243.000000) translate(-291.149514, -78.100392) " points="309.382807 99.6066499 299.716255 104.827348 272.916221 56.5941334 282.582166 51.3734351"></polygon>
                <polygon id="Fill-4" transform="translate(21.046905, 199.359510) rotate(-243.000000) translate(-21.046905, -199.359510) " points="48.3532955 191.03472 49.5086304 201.91259 -6.25948539 207.6843 -7.41482034 196.805827"></polygon>
                <polygon id="Fill-9" transform="translate(321.137373, 154.418543) rotate(-243.000000) translate(-321.137373, -154.418543) " points="292.675648 154.641419 294.728784 143.90302 349.599099 154.19627 347.545962 164.934067"></polygon>
                <polygon id="Fill-10" transform="translate(139.201096, 292.674920) rotate(-243.000000) translate(-139.201096, -292.674920) " points="159.553212 273.396459 165.439249 282.498448 118.848379 311.95338 112.962943 302.851391"></polygon>
                <polygon id="Fill-11" transform="translate(93.272789, 136.170635) rotate(-243.000000) translate(-93.272789, -136.170635) " points="93.4986931 164.212032 82.5996416 162.189217 93.0468841 108.129238 103.945936 110.152053"></polygon>
                <polygon id="Fill-12" transform="translate(196.800422, 32.811199) rotate(-243.000000) translate(-196.800422, -32.811199) " points="175.582005 14.4090319 170.117554 23.7930112 218.019441 51.2133655 223.483289 41.8293862"></polygon>
                <path d="M235.954824,242.677823 C235.954824,252.54532 227.823377,260.544316 217.792491,260.544316 C207.761604,260.544316 199.629551,252.54532 199.629551,242.677823 C199.629551,232.810326 207.761604,224.81133 217.792491,224.81133 C227.823377,224.81133 235.954824,232.810326 235.954824,242.677823" id="Fill-13"></path>
                <path d="M245.778205,125.429838 C245.778205,135.297335 237.646152,143.296331 227.615872,143.296331 C217.584985,143.296331 209.452932,135.297335 209.452932,125.429838 C209.452932,115.562341 217.584985,107.563345 227.615872,107.563345 C237.646152,107.563345 245.778205,115.562341 245.778205,125.429838" id="Fill-17"></path>
                <path d="M380.003923,260.892383 C380.003923,270.75988 371.87187,278.758876 361.840983,278.758876 C351.810097,278.758876 343.67865,270.75988 343.67865,260.892383 C343.67865,251.024886 351.810097,243.02589 361.840983,243.02589 C371.87187,243.02589 380.003923,251.024886 380.003923,260.892383" id="Fill-19"></path>
            </g>
        </g>
    </g>
</svg>