<?xml version="1.0" encoding="UTF-8"?>
<svg width="352px" height="275px" viewBox="0 0 352 275" version="1.1" xmlns="http://www.w3.org/2000/svg" xmlns:xlink="http://www.w3.org/1999/xlink">
    <!-- Generator: Sketch 52.6 (67491) - http://www.bohemiancoding.com/sketch -->
    <title>Gommettes 1</title>
    <desc>Created with Sketch.</desc>
    <g id="Assets" stroke="none" stroke-width="1" fill="none" fill-rule="evenodd">
        <g id="Gomettes" transform="translate(-82.000000, -74.000000)">
            <g id="Gommettes-1" transform="translate(82.000000, 74.000000)">
                <polygon id="Fill-1" fill="#FFD07C" points="71.4518 78.7862 60.4688 79.0502 58.4878 23.9062 69.4698 23.6432"></polygon>
                <polygon id="Fill-2" fill="#FFCFC5" points="294.8328 70.8291 297.8528 81.3191 351.4678 67.4301 348.4478 56.9401"></polygon>
                <polygon id="Fill-3" fill="#22693D" points="122.5314 0 115.8274 8.636 160.0444 42.718 166.7484 34.082"></polygon>
                <polygon id="Fill-4" fill="#22693D" points="306.4303 195.3575 307.5423 206.1395 252.6573 211.2325 251.5463 200.4505"></polygon>
                <polygon id="Fill-5" fill="#AEE9F9" points="101.718 267.561 110.511 274.311 144.362 230.886 135.569 224.136"></polygon>
                <polygon id="Fill-6" fill="#AEE9F9" points="0 125.5473 30.233 171.7253 39.361 165.8453 9.129 119.6653"></polygon>
                <g id="Group-11" transform="translate(94.000000, 96.311000)">
                    <path d="M135.547,10.2301 C145.415,10.2301 153.414,18.3621 153.414,28.3921 C153.414,38.4231 145.415,46.5551 135.547,46.5551 C125.68,46.5551 117.681,38.4231 117.681,28.3921 C117.681,18.3621 125.68,10.2301 135.547,10.2301" id="Fill-7" fill="#FFD07C"></path>
                    <path d="M18.2989,0.4068 C28.1669,0.4068 36.1659,8.5388 36.1659,18.5688 C36.1659,28.5998 28.1669,36.7318 18.2989,36.7318 C8.4319,36.7318 0.4329,28.5998 0.4329,18.5688 C0.4329,8.5388 8.4319,0.4068 18.2989,0.4068" id="Fill-9" fill="#FFCFC5"></path>
                </g>
            </g>
        </g>
    </g>
</svg>