<?xml version="1.0" encoding="UTF-8"?>
<svg width="20px" height="20px" viewBox="0 0 20 20" version="1.1" xmlns="http://www.w3.org/2000/svg" xmlns:xlink="http://www.w3.org/1999/xlink">
    <!-- Generator: Sketch 56.3 (81716) - https://sketch.com -->
    <title>Icon/App/LinkedIn</title>
    <desc>Created with Sketch.</desc>
    <defs>
        <path d="M21.1666667,2 L2.83333333,2 C2.33333333,2 2,2.33333333 2,2.83333333 L2,21.1666667 C2,21.6666667 2.33333333,22 2.83333333,22 L21.1666667,22 C21.6666667,22 22,21.6666667 22,21.1666667 L22,2.83333333 C22,2.33333333 21.6666667,2 21.1666667,2 Z M7.91666667,19.0833333 L5,19.0833333 L5,9.5 L8,9.5 L8,19.0833333 L7.91666667,19.0833333 Z M6.41666667,8.16666667 C5.5,8.16666667 4.66666667,7.41666667 4.66666667,6.41666667 C4.66666667,5.5 5.41666667,4.66666667 6.41666667,4.66666667 C7.33333333,4.66666667 8.16666667,5.41666667 8.16666667,6.41666667 C8.16666667,7.41666667 7.41666667,8.16666667 6.41666667,8.16666667 Z M19.0833333,19.0833333 L16.0833333,19.0833333 L16.0833333,14.4166667 C16.0833333,13.3333333 16.0833333,11.9166667 14.5833333,11.9166667 C13,11.9166667 12.8333333,13.0833333 12.8333333,14.3333333 L12.8333333,19.0833333 L9.83333333,19.0833333 L9.83333333,9.5 L12.6666667,9.5 L12.6666667,10.8333333 L12.6666667,10.8333333 C13.0833333,10.0833333 14,9.33333333 15.5,9.33333333 C18.5,9.33333333 19.0833333,11.3333333 19.0833333,13.9166667 L19.0833333,19.0833333 Z" id="path-1"></path>
    </defs>
    <g id="FOOTER" stroke="none" stroke-width="1" fill="none" fill-rule="evenodd" opacity="0.3">
        <g id="Group-23" transform="translate(-1218.000000, -163.000000)">
            <g id="Group-19">
                <g id="Group-5-Copy">
                    <g id="Group-5" transform="translate(0.000000, 133.000000)">
                        <g id="Icon/App/LinkedIn" transform="translate(1216.000000, 28.000000)">
                            <polygon id="Bounding-Box" points="0 0 24 0 24 24 0 24"></polygon>
                            <mask id="mask-2" fill="white">
                                <use xlink:href="#path-1"></use>
                            </mask>
                            <use id="Mask" fill="#0077B5" fill-rule="evenodd" xlink:href="#path-1"></use>
                            <g id="Mixin/Fill/Black" mask="url(#mask-2)" fill="#202E3A" fill-rule="evenodd">
                                <rect id="Rectangle" x="0" y="0" width="24" height="24"></rect>
                            </g>
                        </g>
                    </g>
                </g>
            </g>
        </g>
    </g>
</svg>