<?xml version="1.0" encoding="UTF-8"?>
<svg width="267px" height="47px" viewBox="0 0 267 47" version="1.1" xmlns="http://www.w3.org/2000/svg" xmlns:xlink="http://www.w3.org/1999/xlink">
    <!-- Generator: Sketch 56.3 (81716) - https://sketch.com -->
    <title>Logo</title>
    <desc>Created with Sketch.</desc>
    <g id="FOOTER" stroke="none" stroke-width="1" fill="none" fill-rule="evenodd">
        <g id="À-propos" transform="translate(-24.000000, -25.000000)">
            <g id="Group-9">
                <g id="Logo" transform="translate(24.000000, 25.000000)">
                    <path d="M127.05269,5.85602968 L115.431744,40.547546 L109.918732,40.547546 L104.952229,21.7162085 L100.085047,40.547546 L94.5725342,40.547546 L83,5.85602968 L90.4500029,5.85602968 L97.4029065,28.463046 L102.220678,10.7398212 L107.832511,10.7398212 L112.550464,28.463046 L119.553277,5.85602968 L127.05269,5.85602968 Z M125.462421,28.7655254 C125.462421,21.3133412 131.322305,16.4801484 137.927838,16.4801484 C144.53387,16.4801484 150.393754,21.3133412 150.393754,28.7655254 C150.393754,36.1660988 144.53387,40.9997976 137.927838,40.9997976 C131.322305,40.9997976 125.462421,36.1660988 125.462421,28.7655254 Z M143.78872,28.7655254 C143.78872,25.0895261 141.156489,22.6223309 137.927838,22.6223309 C134.700186,22.6223309 132.067455,25.0895261 132.067455,28.7655254 C132.067455,32.39042 134.700186,34.8576151 137.927838,34.8576151 C141.156489,34.8576151 143.78872,32.39042 143.78872,28.7655254 Z M153.074747,28.7655254 C153.074747,21.3133412 158.93463,16.4801484 165.540163,16.4801484 C172.146195,16.4801484 178.00558,21.3133412 178.00558,28.7655254 C178.00558,36.1660988 172.146195,40.9997976 165.540163,40.9997976 C158.93463,40.9997976 153.074747,36.1660988 153.074747,28.7655254 Z M171.401045,28.7655254 C171.401045,25.0895261 168.768814,22.6223309 165.540163,22.6223309 C162.312511,22.6223309 159.67978,25.0895261 159.67978,28.7655254 C159.67978,32.39042 162.312511,34.8576151 165.540163,34.8576151 C168.768814,34.8576151 171.401045,32.39042 171.401045,28.7655254 Z M204.773934,27.6577163 L204.773934,40.5472424 L198.268719,40.5472424 L198.268719,28.3625569 C198.268719,24.6369708 196.08268,22.9753078 193.847729,22.9753078 C191.513957,22.9753078 188.633675,24.2336988 188.633675,28.5133412 L188.633675,40.5472424 L182.127462,40.5472424 L182.127462,17.0840951 L188.633675,17.0840951 L188.633675,21.0110643 C189.625878,17.8390285 193.301718,16.479946 195.58608,16.479946 C201.645102,16.479946 204.823844,20.6088042 204.773934,27.6577163 Z M210.036899,40.5476472 L210.036899,17.0839939 L216.543112,17.0839939 L216.543112,40.5476472 L210.036899,40.5476472 Z M209.143019,8.92696913 C209.143019,6.71175578 211.030599,5 213.26555,5 C215.549911,5 217.387582,6.71175578 217.387582,8.92696913 C217.387582,11.1421825 215.549911,12.904537 213.26555,12.904537 C211.030599,12.904537 209.143019,11.1421825 209.143019,8.92696913 Z M244.950247,30.9300894 L227.468419,30.9300894 C228.163659,33.6497723 230.349699,35.160145 233.47853,35.160145 C235.812302,35.160145 238.146573,34.2033227 239.537054,32.5416596 L243.361126,36.418536 C241.176085,39.3886827 237.103463,40.999747 233.030841,40.999747 C225.928708,40.999747 220.714155,36.0663687 220.714155,28.8160735 C220.714155,21.2125991 226.375399,16.4800978 233.030841,16.4800978 C239.636374,16.4800978 245.049567,21.2125991 245.049567,28.4128015 C245.049567,29.0670433 245.000157,29.8730815 244.950247,30.9300894 Z M238.543354,26.650447 C238.344714,23.8816833 236.059854,22.2200202 233.130161,22.2200202 C230.497431,22.2200202 228.163659,23.4784112 227.468419,26.650447 L238.543354,26.650447 Z M247.631589,32.9942655 L253.740023,32.9942655 C253.740023,34.3543599 254.882453,35.8146399 257.166815,35.8146399 C259.053896,35.8146399 260.494785,35.0086018 260.494785,33.6495193 C260.494785,32.6426041 259.699227,32.1386406 257.961874,31.6857818 L254.882453,30.9303424 C248.922251,29.3192781 248.127691,25.9453533 248.127691,23.4781582 C248.127691,19.8537696 251.852443,16.4798448 257.216724,16.4798448 C261.437577,16.4798448 266.40408,18.5943667 266.354669,24.1329061 L260.146916,24.1329061 C260.146916,22.5719346 258.855755,21.7158037 257.316044,21.7158037 C255.825245,21.7158037 254.633903,22.471243 254.633903,23.6800472 C254.633903,24.7881599 255.627603,25.3417102 256.918265,25.6933716 L260.742337,26.7007927 C266.30476,28.2111655 267,31.7358745 267,33.6495193 C267,38.5828976 262.033997,41 257.266634,41 C252.399452,41 247.681499,38.1806375 247.631589,32.9942655 Z" id="Woonies" fill="#18273A"></path>
                    <path d="M71.9562853,15.0750436 C73.1637638,31.1863978 48.9643404,46.0009439 47.9338458,46.6236536 C47.5180585,46.8745512 47.0524165,47 46.5867745,47 C46.0767619,47 45.5672479,46.8493607 45.1260347,46.5511049 C44.9585232,46.4377475 42.301273,44.6300757 38.816935,41.7256085 C40.0892244,40.6111798 41.3934207,39.3929661 42.6766782,38.088097 C44.1304383,39.2826316 45.4929646,40.3275345 46.6625535,41.1719208 C53.6157747,36.621001 67.4648843,25.4046691 66.7205551,15.4755729 C66.3815438,10.9523627 64.6466037,7.937561 61.5640937,6.51480031 C58.0897266,4.91117166 53.8814997,5.74548176 52.5912627,6.64226435 C51.8324756,4.93082027 50.8752673,3.44105279 49.7704893,2.16490093 C52.8285706,0.166284896 58.8410354,-0.574820267 63.7457311,1.68880006 C67.1508003,3.26068865 71.3400824,6.85890284 71.9562853,15.0750436 Z M29.9250677,44.5198923 L29.9295547,44.5259381 C28.1751712,45.7582584 26.9766666,46.492814 26.7617933,46.6227971 C25.9322127,47.1250961 24.8962341,47.1250961 24.066155,46.6238047 C23.0351619,46.001095 -1.16376289,31.1865489 0.043715547,15.0751947 C0.659918415,6.85905398 4.84870199,3.26033598 8.25426978,1.68844739 C13.3209929,-0.649736881 19.5697686,0.218328515 22.5231551,2.36708006 C21.4961504,3.49108116 20.5887966,4.76672921 19.8374878,6.18848228 L19.4735492,6.68372795 C18.2575955,5.77183104 13.9641172,4.88613228 10.4359071,6.51495145 C7.35339714,7.93771214 5.61845703,10.9525138 5.2789472,15.4762278 C4.53112818,25.4531861 18.4615008,36.6931971 25.3962758,41.2118729 C25.8220341,40.9282277 26.3385277,40.5755604 26.9218266,40.164451 L26.9233222,40.1664663 C30.9760027,37.3123801 38.3928717,31.4943771 42.529308,24.6042655 L42.523824,24.600235 C44.4970691,21.3108566 45.7514108,17.7186881 45.3381162,14.1466721 C45.31967,13.9884756 45.2972354,13.8348134 45.2752994,13.681655 C44.9228274,11.3500203 43.9362048,8.98110358 42.139445,7.36034538 C40.606416,6.02172102 38.7293903,5.40606466 36.9256508,5.31840164 C36.824446,5.31386735 36.7227426,5.31034068 36.6195436,5.30882925 C36.5701875,5.30782162 36.5203329,5.30580638 36.4709768,5.30580638 C36.3877197,5.30580638 36.3039639,5.30882925 36.2207068,5.31084449 C36.158887,5.31285973 36.0970673,5.31386735 36.0347491,5.31689021 C35.9749236,5.31940927 35.9145995,5.32394356 35.8542754,5.32747023 C35.7784964,5.33250834 35.7027174,5.33704263 35.627437,5.34359217 C35.5885504,5.34711884 35.5501624,5.35165313 35.5122729,5.35568362 C35.411068,5.36575983 35.3103617,5.37633985 35.2096554,5.38943892 C35.2031743,5.39044654 35.1966932,5.39145416 35.1907107,5.39195797 C31.3673613,5.90382938 27.3610456,8.71106118 26.6575972,14.1804274 C26.0214525,19.1273421 29.5471699,24.8486135 34.0729705,29.9199695 C32.7862233,31.2117394 31.4615865,32.4082892 30.1858073,33.4844284 C23.6239447,26.1570092 20.6865116,19.4442389 21.4507827,13.4967566 C22.5804879,4.71634816 29.7934516,0.0611396566 36.3348738,0.000682403256 C39.777334,-0.0325690861 43.0562711,1.15037784 45.5549837,3.32734277 C48.3323835,5.74714433 50.060344,9.27482506 50.5529074,13.5305119 C51.1157659,18.3948017 49.5558154,23.0923303 47.0037584,27.3475133 L47.0182162,27.3560781 C42.3802427,35.0815075 34.3182552,41.4254886 29.9250677,44.5198923 Z" id="Icon" fill="#FFCFC5"></path>
                </g>
            </g>
        </g>
    </g>
</svg>