<?xml version="1.0" encoding="UTF-8"?>
<svg width="592px" height="80px" viewBox="0 0 592 80" version="1.1" xmlns="http://www.w3.org/2000/svg" xmlns:xlink="http://www.w3.org/1999/xlink">
    <!-- Generator: Sketch 52.6 (67491) - http://www.bohemiancoding.com/sketch -->
    <title>Logo Woonies Pro</title>
    <desc>Created with Sketch.</desc>
    <g id="Assets" stroke="none" stroke-width="1" fill="none" fill-rule="evenodd">
        <g id="Logos" transform="translate(-128.000000, -303.000000)">
            <g id="Logo-Woonies-Pro" transform="translate(128.000000, 303.000000)">
                <path d="M216.346848,9.64017021 L196.556552,67.9908085 L187.167976,67.9908085 L178.710097,36.316766 L170.42136,67.9908085 L161.033633,67.9908085 L141.325783,9.64017021 L154.013025,9.64017021 L165.853714,47.6648511 L174.058307,17.8546383 L183.615174,17.8546383 L191.649776,47.6648511 L203.575461,9.64017021 L216.346848,9.64017021 Z M213.638644,48.173617 C213.638644,35.6391489 223.617938,27.5097872 234.86706,27.5097872 C246.117033,27.5097872 256.096326,35.6391489 256.096326,48.173617 C256.096326,60.6212766 246.117033,68.7514894 234.86706,68.7514894 C223.617938,68.7514894 213.638644,60.6212766 213.638644,48.173617 Z M244.848054,48.173617 C244.848054,41.9906383 240.365404,37.8408511 234.86706,37.8408511 C229.370417,37.8408511 224.886917,41.9906383 224.886917,48.173617 C224.886917,54.2706383 229.370417,58.4204255 234.86706,58.4204255 C240.365404,58.4204255 244.848054,54.2706383 244.848054,48.173617 Z M260.662017,48.173617 C260.662017,35.6391489 270.64131,27.5097872 281.890433,27.5097872 C293.140405,27.5097872 303.118849,35.6391489 303.118849,48.173617 C303.118849,60.6212766 293.140405,68.7514894 281.890433,68.7514894 C270.64131,68.7514894 260.662017,60.6212766 260.662017,48.173617 Z M291.871426,48.173617 C291.871426,41.9906383 287.388776,37.8408511 281.890433,37.8408511 C276.393789,37.8408511 271.910289,41.9906383 271.910289,48.173617 C271.910289,54.2706383 276.393789,58.4204255 281.890433,58.4204255 C287.388776,58.4204255 291.871426,54.2706383 291.871426,48.173617 Z M348.704951,46.3102979 L348.704951,67.9902979 L337.626669,67.9902979 L337.626669,47.4958298 C337.626669,41.2294468 333.903876,38.4345532 330.097789,38.4345532 C326.12341,38.4345532 321.218334,40.5511489 321.218334,47.7494468 L321.218334,67.9902979 L310.138352,67.9902979 L310.138352,28.525617 L321.218334,28.525617 L321.218334,35.1307234 C322.90804,29.7954043 329.167941,27.5094468 333.058174,27.5094468 C343.376598,27.5094468 348.789946,34.4541277 348.704951,46.3102979 Z M357.667701,67.9909787 L357.667701,28.5254468 L368.747683,28.5254468 L368.747683,67.9909787 L357.667701,67.9909787 Z M356.145436,14.8054468 C356.145436,11.0794894 359.359957,8.20034043 363.166044,8.20034043 C367.056277,8.20034043 370.185803,11.0794894 370.185803,14.8054468 C370.185803,18.5314043 367.056277,21.4956596 363.166044,21.4956596 C359.359957,21.4956596 356.145436,18.5314043 356.145436,14.8054468 Z M417.124605,51.814383 L387.353315,51.814383 C388.537299,56.3888511 392.260092,58.9292766 397.588444,58.9292766 C401.562823,58.9292766 405.538051,57.3199149 407.906019,54.5250213 L414.418356,61.0458723 C410.697263,66.041617 403.76165,68.7514043 396.826037,68.7514043 C384.731212,68.7514043 375.850907,60.4535319 375.850907,48.2586383 C375.850907,35.4697021 385.491919,27.5097021 396.826037,27.5097021 C408.07516,27.5097021 417.293745,35.4697021 417.293745,47.5803404 C417.293745,48.680766 417.2096,50.0365106 417.124605,51.814383 Z M406.213763,44.6160851 C405.875482,39.9590638 401.984399,37.1641702 396.995178,37.1641702 C392.511678,37.1641702 388.537299,39.280766 387.353315,44.6160851 L406.213763,44.6160851 Z M421.69089,55.2862979 L432.09346,55.2862979 C432.09346,57.5739574 434.039001,60.0301277 437.929234,60.0301277 C441.142905,60.0301277 443.596718,58.674383 443.596718,56.3884255 C443.596718,54.6948085 442.241894,53.8471489 439.283209,53.0854468 L434.039001,51.8148085 C423.888868,49.1050213 422.535743,43.4301277 422.535743,39.2803404 C422.535743,33.1841702 428.878939,27.5092766 438.01423,27.5092766 C445.202279,27.5092766 453.660157,31.0658723 453.576012,40.381617 L443.004301,40.381617 C443.004301,37.7560851 440.805474,36.3160851 438.18337,36.3160851 C435.644562,36.3160851 433.615725,37.5867234 433.615725,39.6199149 C433.615725,41.4837447 435.307981,42.4148085 437.505958,43.0062979 L444.018295,44.700766 C453.491016,47.2411915 454.675,53.1697021 454.675,56.3884255 C454.675,64.6862979 446.217972,68.7518298 438.099225,68.7518298 C429.810487,68.7518298 421.775885,64.0097021 421.69089,55.2862979 Z" id="Woonies" fill="#18273A"></path>
                <g id="Group" transform="translate(477.603865, 8.571429)">
                    <rect id="Rectangle" fill="#FFCFC5" fill-rule="nonzero" x="0" y="0" width="114.396135" height="68.5714286" rx="34.2857143"></rect>
                    <path d="M35.2797681,27.04 L30.131942,27.04 L30.131942,34.4457143 L35.1424928,34.4457143 C37.235942,34.4457143 38.4714203,32.6971429 38.4714203,30.7771429 C38.4714203,28.8571429 37.3388986,27.04 35.2797681,27.04 Z M30.131942,46.7542857 L25.7391304,46.7542857 L25.7391304,23.1314286 L35.3484058,23.1314286 C37.8193623,23.1314286 39.6725797,23.8857143 40.9423768,25.3942857 C42.2121739,26.8685714 42.8642319,28.6857143 42.8642319,30.7771429 C42.8642319,32.8685714 42.2121739,34.6857143 40.9423768,36.16 C39.6725797,37.6342857 37.8193623,38.3542857 35.3484058,38.3542857 L30.131942,38.3542857 L30.131942,46.7542857 Z M56.0083478,27.04 L51.1350725,27.04 L51.1350725,34.4457143 L55.8710725,34.4457143 C58.0331594,34.4457143 59.2,32.7314286 59.2,30.7771429 C59.2,28.8571429 58.0674783,27.04 56.0083478,27.04 Z M57.7586087,38.1828571 L63.7987246,46.7542857 L58.5136232,46.7542857 L52.953971,38.3542857 L51.1350725,38.3542857 L51.1350725,46.7542857 L46.7422609,46.7542857 L46.7422609,23.1314286 L56.2142609,23.1314286 C58.6508986,23.1314286 60.5384348,23.8857143 61.8082319,25.3942857 C63.1123478,26.8685714 63.7644058,28.6857143 63.7644058,30.7771429 C63.7644058,32.5942857 63.2496232,34.2057143 62.220058,35.6114286 C61.2248116,37.0171429 59.7147826,37.8742857 57.7586087,38.1828571 Z M73.5109565,29.4742857 C72.0352464,30.9828571 71.3145507,32.8342857 71.3145507,34.9942857 C71.3145507,37.1542857 72.0352464,39.0057143 73.5109565,40.5142857 C74.9866667,42.0228571 76.8055652,42.7771429 78.9333333,42.7771429 C81.0611014,42.7771429 82.8456812,42.0228571 84.3213913,40.5142857 C85.7971014,39.0057143 86.5521159,37.1542857 86.5521159,34.9942857 C86.5521159,32.8342857 85.7971014,30.9828571 84.3213913,29.4742857 C82.8456812,27.9314286 81.0611014,27.1771429 78.9333333,27.1771429 C76.8055652,27.1771429 74.9866667,27.9314286 73.5109565,29.4742857 Z M66.956058,34.9942857 C66.956058,31.6342857 68.1228986,28.7885714 70.4222609,26.4228571 C72.7216232,24.0571429 75.570087,22.8571429 78.9333333,22.8571429 C82.2965797,22.8571429 85.1450435,24.0571429 87.4444058,26.4228571 C89.778087,28.7885714 90.9449275,31.6342857 90.9449275,34.9942857 C90.9449275,38.32 89.778087,41.2 87.4444058,43.5657143 C85.1107246,45.9314286 82.2622609,47.0971429 78.9333333,47.0971429 C75.6044058,47.0971429 72.755942,45.9314286 70.4222609,43.5657143 C68.1228986,41.2 66.956058,38.32 66.956058,34.9942857 Z" id="PRO" fill="#18273A"></path>
                </g>
                <path d="M122.675698,25.4654468 C124.734283,52.681617 83.477584,77.7071489 81.720732,78.7590638 C81.0118716,79.1828936 80.2180158,79.3948085 79.4241601,79.3948085 C78.5546586,79.3948085 77.6860071,79.1403404 76.933799,78.6365106 C76.6482149,78.4450213 72.1179676,75.3914043 66.1776489,70.4850213 C68.346728,68.6024681 70.5702039,66.5445957 72.7579819,64.3403404 C75.2364437,66.3582128 77.5593641,68.1233191 79.5533529,69.5497021 C91.4076417,61.8620426 115.018475,42.9148085 113.749496,26.1420426 C113.171528,18.5011915 110.213693,13.4084255 104.958436,11.0050213 C99.0351163,8.29608511 91.8606665,9.70544681 89.6609891,11.2203404 C88.3673613,8.3292766 86.7354523,5.81268085 84.8519574,3.65693617 C90.0655666,0.280765957 100.315995,-0.971148936 108.677828,2.85268085 C114.483005,5.508 121.625156,11.5862979 122.675698,25.4654468 Z M51.0182345,75.2052766 L51.025884,75.2154894 C48.0349008,77.2971915 45.9916148,78.5380426 45.6252852,78.757617 C44.2109641,79.6061277 42.4447626,79.6061277 41.0295916,78.7593191 C39.2718896,77.7074043 -1.98395934,52.6818723 0.0746258377,25.4657021 C1.12516724,11.5865532 8.26646894,5.50740426 14.0724951,2.85208511 C22.7105633,-1.09770213 33.3638691,0.368680851 38.3989883,3.99846809 C36.6480859,5.89719149 35.1011722,8.05208511 33.8202937,10.4537872 L33.1998283,11.290383 C31.1267939,9.74995745 23.8070022,8.25378723 17.7918877,11.0052766 C12.5366308,13.4086809 9.57879574,18.5014468 8.99997803,26.1431489 C7.72504913,42.996766 31.4744245,61.984 43.2972651,69.6171915 C44.0231246,69.1380426 44.9036755,68.5422979 45.89812,67.8478298 L45.9006699,67.851234 C52.8099345,63.0299574 65.4546793,53.2018723 72.5067359,41.5627234 L72.4973864,41.5559149 C75.8614988,35.9993191 77.9999795,29.931234 77.2953688,23.8971915 C77.2639206,23.6299574 77.2256727,23.370383 77.1882748,23.1116596 C76.5873583,19.1729362 74.9053021,15.171234 71.842073,12.4333617 C69.2284688,10.1720851 66.0283973,9.13208511 62.9532688,8.984 C62.7807284,8.97634043 62.6073381,8.97038298 62.4313979,8.96782979 C62.3472526,8.96612766 62.2622573,8.9627234 62.178112,8.9627234 C62.0361699,8.9627234 61.8933779,8.96782979 61.7514358,8.97123404 C61.6460417,8.9746383 61.5406476,8.97634043 61.4344035,8.98144681 C61.3324092,8.98570213 61.2295649,8.9933617 61.1267207,8.99931915 C60.9975279,9.00782979 60.8683351,9.01548936 60.7399922,9.02655319 C60.6736959,9.03251064 60.6082496,9.04017021 60.5436532,9.04697872 C60.3711128,9.064 60.1994224,9.08187234 60.0277319,9.104 C60.0166826,9.10570213 60.0056332,9.10740426 59.9954337,9.10825532 C53.4771473,9.97293617 46.6469283,14.7150638 45.4476452,23.9542128 C44.3631056,32.3108085 50.3739704,41.9754894 58.08984,50.5422979 C55.8961124,52.7244255 53.6377883,54.7457021 51.4627597,56.5635745 C40.2756836,44.1857021 35.2677629,32.8461277 36.5707403,22.7993191 C38.4967328,7.96697872 50.793847,0.103148936 61.946075,0.0010212766 C67.8149976,-0.0551489362 73.4051358,1.94314894 77.6650982,5.62059574 C82.4001841,9.70825532 85.3461198,15.6674043 86.185873,22.8563404 C87.1454695,31.0733617 84.4859678,39.0086809 80.1350605,46.196766 L80.1597091,46.211234 C72.2526001,59.2614468 58.5080167,69.9780426 51.0182345,75.2052766 Z" id="Icon" fill="#FFCFC5"></path>
            </g>
        </g>
    </g>
</svg>