<?xml version="1.0" encoding="UTF-8"?>
<svg width="244px" height="43px" viewBox="0 0 244 43" version="1.1" xmlns="http://www.w3.org/2000/svg" xmlns:xlink="http://www.w3.org/1999/xlink">
    <!-- Generator: Sketch 57.1 (83088) - https://sketch.com -->
    <title>Logo</title>
    <desc>Created with Sketch.</desc>
    <g id="FOOTER" stroke="none" stroke-width="1" fill="none" fill-rule="evenodd">
        <g id="Home-page---Parents-/-Pro-Copy" transform="translate(-17.000000, -18.000000)">
            <g id="Group-9">
                <g id="Logo" transform="translate(17.000000, 18.000000)">
                    <path d="M235.067435,14.5231911 C238.921257,14.5231911 243.455889,16.4615028 243.410775,21.5384972 L237.742827,21.5384972 C237.742827,20.1076067 236.563941,19.32282 235.158118,19.32282 C233.796954,19.32282 232.709207,20.0153061 232.709207,21.1233766 C232.709207,22.1391466 233.616498,22.6465677 234.794928,22.9689239 L238.286472,23.8923933 C243.365206,25.2769017 243.99999,28.507885 243.99999,30.2620594 C243.99999,34.7843228 239.465814,37 235.113004,37 C230.669056,37 226.36136,34.4155844 226.31579,29.66141 L231.893055,29.66141 C231.893055,30.9081633 232.936144,32.2467532 235.021865,32.2467532 C236.744852,32.2467532 238.060447,31.507885 238.060447,30.2620594 C238.060447,29.3390538 237.334067,28.8770872 235.747789,28.4619666 L232.936144,27.7694805 C227.494221,26.2926716 226.768752,23.1999072 226.768752,20.9383117 C226.768752,17.6159555 230.169613,14.5231911 235.067435,14.5231911 Z M126.151501,14.5234694 C132.183096,14.5234694 137.533424,18.9538961 137.533424,25.7850649 C137.533424,32.5689239 132.183096,36.9998145 126.151501,36.9998145 C120.120363,36.9998145 114.770035,32.5689239 114.770035,25.7850649 C114.770035,18.9538961 120.120363,14.5234694 126.151501,14.5234694 Z M151.362753,14.5234694 C157.394347,14.5234694 162.74422,18.9538961 162.74422,25.7850649 C162.74422,32.5689239 157.394347,36.9998145 151.362753,36.9998145 C145.331615,36.9998145 139.981287,32.5689239 139.981287,25.7850649 C139.981287,18.9538961 145.331615,14.5234694 151.362753,14.5234694 Z M212.984673,14.523423 C219.015812,14.523423 223.958292,18.8615492 223.958292,25.4617347 C223.958292,26.0614564 223.913178,26.8003247 223.867609,27.7692486 L207.90594,27.7692486 C208.540725,30.2622913 210.536674,31.6467996 213.393433,31.6467996 C215.524268,31.6467996 217.655559,30.7697124 218.925128,29.2465213 L222.416672,32.8003247 C220.421634,35.5229592 216.703154,36.9997681 212.984673,36.9997681 C206.500117,36.9997681 201.739004,32.4775046 201.739004,25.8314007 C201.739004,18.8615492 206.907965,14.523423 212.984673,14.523423 Z M197.93066,15.0769944 L197.93066,36.5853432 L191.990206,36.5853432 L191.990206,15.0769944 L197.93066,15.0769944 Z M82.8021762,4.78469388 L89.15,25.506 L93.5493139,9.26150278 L98.6731612,9.26150278 L102.98,25.506 L109.374729,4.78469388 L116.222019,4.78469388 L105.611591,36.5852505 L100.577971,36.5852505 L96.0433388,19.3231911 L91.5993901,36.5852505 L86.5662263,36.5852505 L76,4.78469388 L82.8021762,4.78469388 Z M178.79598,14.5232839 C184.232749,14.5232839 187.129597,18.1786857 187.18462,24.4377504 L187.18489,36.5849722 L181.245346,36.5849722 L181.245346,25.4156772 C181.245346,22.0005566 179.249397,20.4773655 177.20879,20.4773655 C175.077955,20.4773655 172.448133,21.6308905 172.448133,25.5538961 L172.448133,36.5849722 L166.507678,36.5849722 L166.507678,15.0770872 L172.448133,15.0770872 L172.448133,18.6768089 C173.354057,15.7691095 176.710259,14.5232839 178.79598,14.5232839 Z M126.151501,20.1538033 C123.204515,20.1538033 120.800717,22.4153989 120.800717,25.7850649 C120.800717,29.107885 123.204515,31.3694805 126.151501,31.3694805 C129.0994,31.3694805 131.502741,29.107885 131.502741,25.7850649 C131.502741,22.4153989 129.0994,20.1538033 126.151501,20.1538033 Z M151.362753,20.1538033 C148.415767,20.1538033 146.011969,22.4153989 146.011969,25.7850649 C146.011969,29.107885 148.415767,31.3694805 151.362753,31.3694805 C154.310652,31.3694805 156.713993,29.107885 156.713993,25.7850649 C156.713993,22.4153989 154.310652,20.1538033 151.362753,20.1538033 Z M213.075357,19.7850186 C210.67156,19.7850186 208.540725,20.9385436 207.90594,23.846243 L218.017837,23.846243 C217.83647,21.3082096 215.750293,19.7850186 213.075357,19.7850186 Z M194.938104,4 C197.023825,4 198.701698,5.56910946 198.701698,7.59972171 C198.701698,9.63033395 197.023825,11.2458256 194.938104,11.2458256 C192.897497,11.2458256 191.174054,9.63033395 191.174054,7.59972171 C191.174054,5.56910946 192.897497,4 194.938104,4 Z" id="Woonies" fill="#18273A"></path>
                    <path d="M45.6229486,1.98065404 C48.4261897,0.15213299 53.9376158,-0.525899394 58.4335868,1.54507239 C61.5549003,2.98318323 65.3950756,6.27516643 65.9599282,13.7920611 C67.0667834,28.5322363 44.8839787,42.0859699 43.9393587,42.6556831 C43.5582203,42.8852277 43.1313818,43 42.7045433,43 C42.2370318,43 41.7699773,42.862181 41.3655318,42.5893087 C41.2119796,42.4855988 38.7761669,40.8317714 35.5821904,38.1744928 C36.7484557,37.1549091 37.943969,36.0403732 39.1202883,34.8465569 C40.4529018,35.9394289 41.7018842,36.8954039 42.7740074,37.6679275 C49.1477935,33.5043201 61.8428106,23.2425696 61.1605089,14.1585028 C60.8497485,10.0202467 59.2593867,7.2620239 56.4337526,5.96034922 C53.248916,4.49319961 49.3913748,5.25650459 48.2086574,6.07696526 C47.5131027,4.51117599 46.6356617,3.14819723 45.6229486,1.98065404 Z M33.3069676,0.000624326383 C36.4625562,-0.029797249 39.4682485,1.05247334 41.7587351,3.04416466 C44.3046849,5.25802567 45.8886487,8.48547825 46.3401652,12.378979 L46.3401652,12.378979 L46.3853125,12.8234918 C46.7597779,17.115353 45.3481846,21.2567936 43.0867785,25.0200654 L43.0867785,25.0200654 L43.1000315,25.0279012 L42.7984062,25.5189416 C38.5066465,32.364196 31.3647474,37.9657535 27.4313121,40.7309653 L27.4313121,40.7309653 C25.8272403,41.8639385 24.7286111,42.5359788 24.5316439,42.6548995 C23.771195,43.1144497 22.821548,43.1144497 22.0606421,42.6558214 C21.1155651,42.0861082 -1.06678265,28.5323745 0.0400725848,13.7921994 C0.604925214,6.27530471 4.44464349,2.98286058 7.56641397,1.54474974 C12.2109101,-0.594440125 17.9389545,0.199747365 20.6462255,2.16562644 C19.7048045,3.19396787 18.8730636,4.36105013 18.1843638,5.66180294 L18.1843638,5.66180294 L17.8507534,6.11490004 C16.7361292,5.28061138 12.8004408,4.47029124 9.5662482,5.9604875 C6.74061405,7.26216218 5.15025228,10.020385 4.83903493,14.1591021 C4.15353417,23.2869575 16.9230424,33.5703718 23.2799195,37.7044795 C23.6701979,37.4449742 24.1436504,37.1223212 24.678341,36.7461999 L24.678341,36.7461999 C28.3946692,34.1368584 35.1934657,28.8140046 38.985199,22.5102854 L38.985199,22.5102854 C40.78898,19.4971667 41.9387933,16.2107147 41.5599398,12.9427 C41.5430308,12.797967 41.5224658,12.6573825 41.5023578,12.5172588 C41.1792584,10.3840611 40.2748544,8.21675433 38.6278246,6.733933 C37.222548,5.50923413 35.5019411,4.94597405 33.8485132,4.86577172 C33.7557421,4.86162332 33.662514,4.85839679 33.5679149,4.85701399 C33.5226719,4.85609212 33.4769718,4.85424839 33.4317288,4.85424839 C33.3554097,4.85424839 33.2786336,4.85701399 33.2023145,4.85885772 C33.1456465,4.86070145 33.0889784,4.86162332 33.0318533,4.86438892 C32.9770133,4.86669358 32.9217162,4.87084198 32.8664191,4.87406851 C32.7969551,4.87867784 32.727491,4.88282624 32.6584839,4.88881837 C32.6228379,4.8920449 32.5876488,4.89619329 32.5529168,4.89988076 C32.4601457,4.90909942 32.3678316,4.91877901 32.2755175,4.93076326 C32.2695765,4.93168513 32.2636355,4.932607 32.2581515,4.93306793 C28.7534146,5.40137582 25.0809585,7.96969427 24.4361308,12.9735825 C23.8529981,17.4994832 27.0849057,22.7338379 31.2335563,27.3735891 C30.054038,28.5554212 28.8397877,29.650137 27.6703234,30.6346898 C21.6552827,23.9308808 18.9626357,17.78941 19.6632174,12.3480965 C20.6987806,4.31495683 27.310664,0.0559362816 33.3069676,0.000624326383 Z" id="Icon" fill="#FFFFFF"></path>
                </g>
            </g>
        </g>
    </g>
</svg>