<?xml version="1.0" encoding="UTF-8"?>
<svg width="615px" height="80px" viewBox="0 0 615 80" version="1.1" xmlns="http://www.w3.org/2000/svg" xmlns:xlink="http://www.w3.org/1999/xlink">
    <!-- Generator: Sketch 52.6 (67491) - http://www.bohemiancoding.com/sketch -->
    <title>Logo Woonies Pro Plus Blanc</title>
    <desc>Created with Sketch.</desc>
    <g id="Assets" stroke="none" stroke-width="1" fill="none" fill-rule="evenodd">
        <g id="Logos-White" transform="translate(-128.000000, -479.000000)">
            <g id="Logo-Woonies-Pro-Plus-Blanc" transform="translate(128.000000, 479.000000)">
                <path d="M216.153821,9.64017021 L196.381182,67.9908085 L187.000982,67.9908085 L178.55065,36.316766 L170.269307,67.9908085 L160.889957,67.9908085 L141.19969,9.64017021 L153.875612,9.64017021 L165.705738,47.6648511 L173.90301,17.8546383 L183.45135,17.8546383 L191.478783,47.6648511 L203.393828,9.64017021 L216.153821,9.64017021 Z M213.448033,48.173617 C213.448033,35.6391489 223.418423,27.5097872 234.657509,27.5097872 C245.897444,27.5097872 255.867834,35.6391489 255.867834,48.173617 C255.867834,60.6212766 245.897444,68.7514894 234.657509,68.7514894 C223.418423,68.7514894 213.448033,60.6212766 213.448033,48.173617 Z M244.629597,48.173617 C244.629597,41.9906383 240.150946,37.8408511 234.657509,37.8408511 C229.165769,37.8408511 224.68627,41.9906383 224.68627,48.173617 C224.68627,54.2706383 229.165769,58.4204255 234.657509,58.4204255 C240.150946,58.4204255 244.629597,54.2706383 244.629597,48.173617 Z M260.42945,48.173617 C260.42945,35.6391489 270.39984,27.5097872 281.638926,27.5097872 C292.878861,27.5097872 302.848402,35.6391489 302.848402,48.173617 C302.848402,60.6212766 292.878861,68.7514894 281.638926,68.7514894 C270.39984,68.7514894 260.42945,60.6212766 260.42945,48.173617 Z M291.611014,48.173617 C291.611014,41.9906383 287.132364,37.8408511 281.638926,37.8408511 C276.147187,37.8408511 271.667687,41.9906383 271.667687,48.173617 C271.667687,54.2706383 276.147187,58.4204255 281.638926,58.4204255 C287.132364,58.4204255 291.611014,54.2706383 291.611014,48.173617 Z M348.393832,46.3102979 L348.393832,67.9902979 L337.325434,67.9902979 L337.325434,47.4958298 C337.325434,41.2294468 333.605963,38.4345532 329.803271,38.4345532 C325.832439,38.4345532 320.931739,40.5511489 320.931739,47.7494468 L320.931739,67.9902979 L309.861642,67.9902979 L309.861642,28.525617 L320.931739,28.525617 L320.931739,35.1307234 C322.619937,29.7954043 328.874252,27.5094468 332.761015,27.5094468 C343.070233,27.5094468 348.478751,34.4541277 348.393832,46.3102979 Z M357.348585,67.9909787 L357.348585,28.5254468 L368.418681,28.5254468 L368.418681,67.9909787 L357.348585,67.9909787 Z M355.827678,14.8054468 C355.827678,11.0794894 359.039331,8.20034043 362.842023,8.20034043 C366.728785,8.20034043 369.855518,11.0794894 369.855518,14.8054468 C369.855518,18.5314043 366.728785,21.4956596 362.842023,21.4956596 C359.039331,21.4956596 355.827678,18.5314043 355.827678,14.8054468 Z M416.75244,51.814383 L387.007713,51.814383 C388.190641,56.3888511 391.910112,58.9292766 397.233711,58.9292766 C401.204543,58.9292766 405.176224,57.3199149 407.54208,54.5250213 L414.048606,61.0458723 C410.330834,66.041617 403.401408,68.7514043 396.471983,68.7514043 C384.387949,68.7514043 375.515567,60.4535319 375.515567,48.2586383 C375.515567,35.4697021 385.147978,27.5097021 396.471983,27.5097021 C407.711069,27.5097021 416.92143,35.4697021 416.92143,47.5803404 C416.92143,48.680766 416.83736,50.0365106 416.75244,51.814383 Z M405.851334,44.6160851 C405.513355,39.9590638 401.625743,37.1641702 396.640973,37.1641702 C392.161473,37.1641702 388.190641,39.280766 387.007713,44.6160851 L405.851334,44.6160851 Z M421.314652,55.2862979 L431.70794,55.2862979 C431.70794,57.5739574 433.651746,60.0301277 437.538508,60.0301277 C440.749311,60.0301277 443.200935,58.674383 443.200935,56.3884255 C443.200935,54.6948085 441.84732,53.8471489 438.891274,53.0854468 L433.651746,51.8148085 C423.510668,49.1050213 422.158751,43.4301277 422.158751,39.2803404 C422.158751,33.1841702 428.496288,27.5092766 437.623427,27.5092766 C444.805063,27.5092766 453.255395,31.0658723 453.171325,40.381617 L442.609047,40.381617 C442.609047,37.7560851 440.412181,36.3160851 437.792417,36.3160851 C435.255874,36.3160851 433.228847,37.5867234 433.228847,39.6199149 C433.228847,41.4837447 434.919593,42.4148085 437.115609,43.0062979 L443.622136,44.700766 C453.086406,47.2411915 454.269333,53.1697021 454.269333,56.3884255 C454.269333,64.6862979 445.81985,68.7518298 437.708347,68.7518298 C429.427004,68.7518298 421.399571,64.0097021 421.314652,55.2862979 Z" id="Woonies" fill="#FFFFFF"></path>
                <g id="Group" transform="translate(477.177740, 8.571429)">
                    <rect id="Rectangle" stroke="#FFFFFF" stroke-width="4.28571429" fill-rule="nonzero" x="2.14285714" y="2.14285714" width="132.867169" height="64.2857143" rx="32.1428571"></rect>
                    <path d="M35.248291,27.04 L30.1050579,27.04 L30.1050579,34.4457143 L35.1111381,34.4457143 C37.2027196,34.4457143 38.4370956,32.6971429 38.4370956,30.7771429 C38.4370956,28.8571429 37.3055843,27.04 35.248291,27.04 Z M30.1050579,46.7542857 L25.7161656,46.7542857 L25.7161656,23.1314286 L35.3168675,23.1314286 C37.7856194,23.1314286 39.6371833,23.8857143 40.9058475,25.3942857 C42.1745116,26.8685714 42.8259878,28.6857143 42.8259878,30.7771429 C42.8259878,32.8685714 42.1745116,34.6857143 40.9058475,36.16 C39.6371833,37.6342857 37.7856194,38.3542857 35.3168675,38.3542857 L30.1050579,38.3542857 L30.1050579,46.7542857 Z M55.9583764,27.04 L51.089449,27.04 L51.089449,34.4457143 L55.8212235,34.4457143 C57.9813814,34.4457143 59.1471809,32.7314286 59.1471809,30.7771429 C59.1471809,28.8571429 58.0156697,27.04 55.9583764,27.04 Z M57.7070757,38.1828571 L63.7418025,46.7542857 L58.4614165,46.7542857 L52.9067247,38.3542857 L51.089449,38.3542857 L51.089449,46.7542857 L46.7005568,46.7542857 L46.7005568,23.1314286 L56.1641057,23.1314286 C58.5985694,23.1314286 60.4844216,23.8857143 61.7530857,25.3942857 C63.0560381,26.8685714 63.7075143,28.6857143 63.7075143,30.7771429 C63.7075143,32.5942857 63.193191,34.2057143 62.1645444,35.6114286 C61.170186,37.0171429 59.6615043,37.8742857 57.7070757,38.1828571 Z M73.445369,29.4742857 C71.9709755,30.9828571 71.2509229,32.8342857 71.2509229,34.9942857 C71.2509229,37.1542857 71.9709755,39.0057143 73.445369,40.5142857 C74.9197625,42.0228571 76.7370382,42.7771429 78.8629079,42.7771429 C80.9887776,42.7771429 82.7717651,42.0228571 84.2461586,40.5142857 C85.7205521,39.0057143 86.4748929,37.1542857 86.4748929,34.9942857 C86.4748929,32.8342857 85.7205521,30.9828571 84.2461586,29.4742857 C82.7717651,27.9314286 80.9887776,27.1771429 78.8629079,27.1771429 C76.7370382,27.1771429 74.9197625,27.9314286 73.445369,29.4742857 Z M66.8963189,34.9942857 C66.8963189,31.6342857 68.0621184,28.7885714 70.3594292,26.4228571 C72.65674,24.0571429 75.5026623,22.8571429 78.8629079,22.8571429 C82.2231536,22.8571429 85.0690759,24.0571429 87.3663867,26.4228571 C89.6979857,28.7885714 90.8637852,31.6342857 90.8637852,34.9942857 C90.8637852,38.32 89.6979857,41.2 87.3663867,43.5657143 C85.0347877,45.9314286 82.1888653,47.0971429 78.8629079,47.0971429 C75.5369505,47.0971429 72.6910282,45.9314286 70.3594292,43.5657143 C68.0621184,41.2 66.8963189,38.32 66.8963189,34.9942857 Z" id="PRO" fill="#FFFFFF"></path>
                    <polygon id="+" fill="#FFFFFF" points="107.341736 33.0307906 107.341736 25.7142857 111.188524 25.7142857 111.188524 33.0307906 118.52295 33.0307906 118.52295 36.8679612 111.188524 36.8679612 111.188524 44.2285714 107.341736 44.2285714 107.341736 36.8679612 100.007311 36.8679612 100.007311 33.0307906"></polygon>
                </g>
                <path d="M122.566245,25.4654468 C124.622993,52.681617 83.4031042,77.7071489 81.6478196,78.7590638 C80.9395916,79.1828936 80.1464442,79.3948085 79.3532968,79.3948085 C78.4845711,79.3948085 77.6166945,79.1403404 76.8651576,78.6365106 C76.5798283,78.4450213 72.053623,75.3914043 66.1186043,70.4850213 C68.2857481,68.6024681 70.5072402,66.5445957 72.6930662,64.3403404 C75.1693167,66.3582128 77.4901646,68.1233191 79.4823743,69.5497021 C91.3260866,61.8620426 114.915854,42.9148085 113.648007,26.1420426 C113.070555,18.5011915 110.115359,13.4084255 104.864791,11.0050213 C98.9467558,8.29608511 91.7787071,9.70544681 89.5809924,11.2203404 C88.2885187,8.3292766 86.6580658,5.81268085 84.7762513,3.65693617 C89.9852088,0.280765957 100.226492,-0.971148936 108.580865,2.85268085 C114.380861,5.508 121.516641,11.5862979 122.566245,25.4654468 Z M50.9727153,75.2052766 L50.980358,75.2154894 C47.9920434,77.2971915 45.9505805,78.5380426 45.5845777,78.757617 C44.1715185,79.6061277 42.4068928,79.6061277 40.9929844,78.7593191 C39.2368507,77.7074043 -1.98218923,52.6818723 0.0745592555,25.4657021 C1.12416335,11.5865532 8.25909348,5.50740426 14.0599394,2.85208511 C22.6903006,-1.09770213 33.3341014,0.368680851 38.3647282,3.99846809 C36.615388,5.89719149 35.0698545,8.05208511 33.7901187,10.4537872 L33.1702069,11.290383 C31.0990221,9.74995745 23.7857612,8.25378723 17.7760135,11.0052766 C12.5254454,13.4086809 9.57024941,18.5014468 8.99194812,26.1431489 C7.71815674,42.996766 31.4463426,61.984 43.2586347,69.6171915 C43.9838466,69.1380426 44.8636118,68.5422979 45.8571691,67.8478298 L45.8597167,67.851234 C52.7628168,63.0299574 65.3962797,53.2018723 72.4420444,41.5627234 L72.4327033,41.5559149 C75.7938141,35.9993191 77.9303869,29.931234 77.2264048,23.8971915 C77.1949847,23.6299574 77.1567709,23.370383 77.1194064,23.1116596 C76.519026,19.1729362 74.8384706,15.171234 71.7779745,12.4333617 C69.1667022,10.1720851 65.9694858,9.13208511 62.897101,8.984 C62.7247146,8.97634043 62.5514789,8.97038298 62.3756957,8.96782979 C62.2916255,8.96612766 62.2067061,8.9627234 62.1226358,8.9627234 C61.9808204,8.9627234 61.8381558,8.96782979 61.6963403,8.97123404 C61.5910402,8.9746383 61.4857401,8.97634043 61.3795909,8.98144681 C61.2776876,8.98570213 61.174935,8.9933617 61.0721825,8.99931915 C60.943105,9.00782979 60.8140275,9.01548936 60.6857992,9.02655319 C60.619562,9.03251064 60.554174,9.04017021 60.4896353,9.04697872 C60.3172489,9.064 60.1457116,9.08187234 59.9741744,9.104 C59.9631348,9.10570213 59.9520953,9.10740426 59.941905,9.10825532 C53.4294343,9.97293617 46.6053092,14.7150638 45.4070961,23.9542128 C44.3235243,32.3108085 50.329026,41.9754894 58.0380115,50.5422979 C55.8462411,52.7244255 53.589932,54.7457021 51.4168439,56.5635745 C40.2397491,44.1857021 35.2362966,32.8461277 36.5381113,22.7993191 C38.4623855,7.96697872 50.748528,0.103148936 61.8908058,0.0010212766 C67.7544921,-0.0551489362 73.3396427,1.94314894 77.5958043,5.62059574 C82.3266655,9.70825532 85.2699728,15.6674043 86.1089767,22.8563404 C87.0677171,31.0733617 84.4105882,39.0086809 80.0635628,46.196766 L80.0881895,46.211234 C72.1881353,59.2614468 58.455815,69.9780426 50.9727153,75.2052766 Z" id="Icon" fill="#FFCFC5"></path>
            </g>
        </g>
    </g>
</svg>