<?xml version="1.0" encoding="UTF-8"?>
<svg width="455px" height="80px" viewBox="0 0 455 80" version="1.1" xmlns="http://www.w3.org/2000/svg" xmlns:xlink="http://www.w3.org/1999/xlink">
    <!-- Generator: Sketch 52.6 (67491) - http://www.bohemiancoding.com/sketch -->
    <title>Logo Woonies Blanc</title>
    <desc>Created with Sketch.</desc>
    <g id="Assets" stroke="none" stroke-width="1" fill="none" fill-rule="evenodd">
        <g id="Logos-White" transform="translate(-128.000000, -127.000000)">
            <g id="Logo-Woonies-Blanc" transform="translate(128.000000, 127.000000)">
                <path d="M216.477859,9.64017021 L196.675579,67.9908085 L187.281317,67.9908085 L178.818317,36.316766 L170.52456,67.9908085 L161.131149,67.9908085 L141.411364,9.64017021 L154.106289,9.64017021 L165.954149,47.6648511 L174.163709,17.8546383 L183.726364,17.8546383 L191.765831,47.6648511 L203.698737,9.64017021 L216.477859,9.64017021 Z M213.768015,48.173617 C213.768015,35.6391489 223.753351,27.5097872 235.009286,27.5097872 C246.266071,27.5097872 256.251407,35.6391489 256.251407,48.173617 C256.251407,60.6212766 246.266071,68.7514894 235.009286,68.7514894 C223.753351,68.7514894 213.768015,60.6212766 213.768015,48.173617 Z M244.996323,48.173617 C244.996323,41.9906383 240.510959,37.8408511 235.009286,37.8408511 C229.509314,37.8408511 225.023099,41.9906383 225.023099,48.173617 C225.023099,54.2706383 229.509314,58.4204255 235.009286,58.4204255 C240.510959,58.4204255 244.996323,54.2706383 244.996323,48.173617 Z M260.819863,48.173617 C260.819863,35.6391489 270.805199,27.5097872 282.061134,27.5097872 C293.317919,27.5097872 303.302405,35.6391489 303.302405,48.173617 C303.302405,60.6212766 293.317919,68.7514894 282.061134,68.7514894 C270.805199,68.7514894 260.819863,60.6212766 260.819863,48.173617 Z M292.048171,48.173617 C292.048171,41.9906383 287.562807,37.8408511 282.061134,37.8408511 C276.561162,37.8408511 272.074947,41.9906383 272.074947,48.173617 C272.074947,54.2706383 276.561162,58.4204255 282.061134,58.4204255 C287.562807,58.4204255 292.048171,54.2706383 292.048171,48.173617 Z M348.916112,46.3102979 L348.916112,67.9902979 L337.831121,67.9902979 L337.831121,47.4958298 C337.831121,41.2294468 334.106075,38.4345532 330.297682,38.4345532 C326.320897,38.4345532 321.41285,40.5511489 321.41285,47.7494468 L321.41285,67.9902979 L310.326159,67.9902979 L310.326159,28.525617 L321.41285,28.525617 L321.41285,35.1307234 C323.103579,29.7954043 329.367271,27.5094468 333.25986,27.5094468 C343.584533,27.5094468 349.001159,34.4541277 348.916112,46.3102979 Z M357.88429,67.9909787 L357.88429,28.5254468 L368.970981,28.5254468 L368.970981,67.9909787 L357.88429,67.9909787 Z M356.361103,14.8054468 C356.361103,11.0794894 359.57757,8.20034043 363.385963,8.20034043 C367.278551,8.20034043 370.409972,11.0794894 370.409972,14.8054468 C370.409972,18.5314043 367.278551,21.4956596 363.385963,21.4956596 C359.57757,21.4956596 356.361103,18.5314043 356.361103,14.8054468 Z M417.377198,51.814383 L387.58788,51.814383 C388.772581,56.3888511 392.497628,58.9292766 397.829207,58.9292766 C401.805993,58.9292766 405.783628,57.3199149 408.15303,54.5250213 L414.66931,61.0458723 C410.945964,66.041617 404.006151,68.7514043 397.066338,68.7514043 C384.964189,68.7514043 376.078507,60.4535319 376.078507,48.2586383 C376.078507,35.4697021 385.725357,27.5097021 397.066338,27.5097021 C408.322273,27.5097021 417.546441,35.4697021 417.546441,47.5803404 C417.546441,48.680766 417.462245,50.0365106 417.377198,51.814383 Z M406.45975,44.6160851 C406.121264,39.9590638 402.227824,37.1641702 397.235581,37.1641702 C392.749366,37.1641702 388.772581,39.280766 387.58788,44.6160851 L406.45975,44.6160851 Z M421.946249,55.2862979 L432.355118,55.2862979 C432.355118,57.5739574 434.301837,60.0301277 438.194426,60.0301277 C441.410043,60.0301277 443.865342,58.674383 443.865342,56.3884255 C443.865342,54.6948085 442.509697,53.8471489 439.549221,53.0854468 L434.301837,51.8148085 C424.145557,49.1050213 422.791613,43.4301277 422.791613,39.2803404 C422.791613,33.1841702 429.13865,27.5092766 438.279473,27.5092766 C445.471875,27.5092766 453.934875,31.0658723 453.850679,40.381617 L443.272566,40.381617 C443.272566,37.7560851 441.072407,36.3160851 438.448716,36.3160851 C435.90837,36.3160851 433.878305,37.5867234 433.878305,39.6199149 C433.878305,41.4837447 435.571585,42.4148085 437.770893,43.0062979 L444.287174,44.700766 C453.765632,47.2411915 454.950333,53.1697021 454.950333,56.3884255 C454.950333,64.6862979 446.488183,68.7518298 438.36452,68.7518298 C430.070763,68.7518298 422.031295,64.0097021 421.946249,55.2862979 Z" id="Woonies" fill="#FFFFFF"></path>
                <path d="M122.749985,25.4654468 C124.809817,52.681617 83.5281346,77.7071489 81.7702187,78.7590638 C81.060929,79.1828936 80.2665925,79.3948085 79.4722561,79.3948085 C78.602228,79.3948085 77.7330505,79.1403404 76.9803869,78.6365106 C76.6946299,78.4450213 72.1616393,75.3914043 66.2177234,70.4850213 C68.3881159,68.6024681 70.6129383,66.5445957 72.8020411,64.3403404 C75.2820037,66.3582128 77.6063308,68.1233191 79.6015271,69.5497021 C91.4629944,61.8620426 115.088125,42.9148085 113.818378,26.1420426 C113.24006,18.5011915 110.280434,13.4084255 105.021994,11.0050213 C99.0950879,8.29608511 91.9162935,9.70544681 89.7152841,11.2203404 C88.4208729,8.3292766 86.7879757,5.81268085 84.9033402,3.65693617 C90.1201065,0.280765957 100.376742,-0.971148936 108.743639,2.85268085 C114.552331,5.508 121.698807,11.5862979 122.749985,25.4654468 Z M51.049129,75.2052766 L51.0567832,75.2154894 C48.0639888,77.2971915 46.0194654,78.5380426 45.652914,78.757617 C44.2377364,79.6061277 42.4704654,79.6061277 41.0544374,78.7593191 C39.295671,77.7074043 -1.98516075,52.6818723 0.074671028,25.4657021 C1.1258486,11.5865532 8.27147477,5.50740426 14.0810168,2.85208511 C22.7243159,-1.09770213 33.3840729,0.368680851 38.4222411,3.99846809 C36.6702785,5.89719149 35.122428,8.05208511 33.8407738,10.4537872 L33.2199327,11.290383 C31.145643,9.74995745 23.8214187,8.25378723 17.8026617,11.0052766 C12.5442224,13.4086809 9.58459626,18.5014468 9.00542804,26.1431489 C7.7297271,42.996766 31.4934841,61.984 43.3234841,69.6171915 C44.0497832,69.1380426 44.9308673,68.5422979 45.925914,67.8478298 L45.9284654,67.851234 C52.841914,63.0299574 65.4943159,53.2018723 72.550643,41.5627234 L72.5412879,41.5559149 C75.9074374,35.9993191 78.0472131,29.931234 77.3421757,23.8971915 C77.3107084,23.6299574 77.2724374,23.370383 77.2350168,23.1116596 C76.6337364,19.1729362 74.9506617,15.171234 71.8855776,12.4333617 C69.2703907,10.1720851 66.0683813,9.13208511 62.9913907,8.984 C62.8187458,8.97634043 62.6452505,8.97038298 62.4692037,8.96782979 C62.3850075,8.96612766 62.2999607,8.9627234 62.2157645,8.9627234 C62.0737364,8.9627234 61.9308579,8.96782979 61.7888299,8.97123404 C61.683372,8.9746383 61.577914,8.97634043 61.4716056,8.98144681 C61.3695495,8.98570213 61.266643,8.9933617 61.1637364,8.99931915 C61.0344654,9.00782979 60.9051944,9.01548936 60.7767738,9.02655319 C60.7104374,9.03251064 60.6449514,9.04017021 60.5803159,9.04697872 C60.407671,9.064 60.2358766,9.08187234 60.0640822,9.104 C60.0530262,9.10570213 60.0419701,9.10740426 60.0317645,9.10825532 C53.5095308,9.97293617 46.6751757,14.7150638 45.4751664,23.9542128 C44.3899701,32.3108085 50.4044748,41.9754894 58.1250168,50.5422979 C55.9299607,52.7244255 53.6702692,54.7457021 51.4939234,56.5635745 C40.3000729,44.1857021 35.2891196,32.8461277 36.592886,22.7993191 C38.5200449,7.96697872 50.8246056,0.103148936 61.9835869,0.0010212766 C67.8560636,-0.0551489362 73.4495869,1.94314894 77.712129,5.62059574 C82.4500822,9.70825532 85.3978019,15.6674043 86.2380636,22.8563404 C87.1982411,31.0733617 84.537129,39.0086809 80.1835869,46.196766 L80.2082505,46.211234 C72.2963533,59.2614468 58.5434467,69.9780426 51.049129,75.2052766 Z" id="Icon" fill="#FFCFC5"></path>
            </g>
        </g>
    </g>
</svg>