<?xml version="1.0" encoding="UTF-8"?>
<svg width="197px" height="195px" viewBox="0 0 197 195" version="1.1" xmlns="http://www.w3.org/2000/svg" xmlns:xlink="http://www.w3.org/1999/xlink">
    <!-- Generator: Sketch 52.6 (67491) - http://www.bohemiancoding.com/sketch -->
    <title>Lion</title>
    <desc>Created with Sketch.</desc>
    <g id="Assets" stroke="none" stroke-width="1" fill="none" fill-rule="evenodd">
        <g id="Avatars" transform="translate(-560.000000, -356.000000)" fill-rule="nonzero">
            <g id="Lion" transform="translate(560.000000, 355.000000)">
                <g id="Group-26">
                    <polygon id="Star" fill="#F5A623" points="98.5 181.430734 84.4819884 195.997412 75.1357123 178.071456 57.5816212 188.098752 53.6642603 168.265773 33.9962177 172.941333 35.8251332 152.808081 15.636527 151.753121 23.0635511 132.950672 3.9899421 126.250657 16.4133815 110.302274 0 98.5 16.4133815 86.697726 3.9899421 70.7493432 23.0635511 64.0493281 15.636527 45.2468795 35.8251332 44.1919188 33.9962177 24.0586669 53.6642603 28.7342272 57.5816212 8.90124846 75.1357123 18.9285436 84.4819884 1.00258797 98.5 15.5692662 112.518012 1.00258797 121.864288 18.9285436 139.418379 8.90124846 143.33574 28.7342272 163.003782 24.0586669 161.174867 44.1919188 181.363473 45.2468795 173.936449 64.0493281 193.010058 70.7493432 180.586619 86.697726 197 98.5 180.586619 110.302274 193.010058 126.250657 173.936449 132.950672 181.363473 151.753121 161.174867 152.808081 163.003782 172.941333 143.33574 168.265773 139.418379 188.098752 121.864288 178.071456 112.518012 195.997412"></polygon>
                    <g id="Group-24-Copy" transform="translate(131.333333, 41.642276)" fill="#8B572A">
                        <g id="Group-25">
                            <circle id="Oval-Copy-6" cx="16.0162602" cy="16.0162602" r="16.0162602"></circle>
                        </g>
                    </g>
                    <g id="Group-24-Copy" transform="translate(49.650407, 57.658537) scale(-1, 1) translate(-49.650407, -57.658537) translate(33.634146, 41.642276)" fill="#8B572A">
                        <g id="Group-25">
                            <circle id="Oval-Copy-6" cx="16.0162602" cy="16.0162602" r="16.0162602"></circle>
                        </g>
                    </g>
                    <g id="Group-23-Copy" transform="translate(33.634146, 35.235772)">
                        <g id="Group-21-Copy">
                            <g id="Group-18-Copy">
                                <g id="Group-16">
                                    <circle id="Oval" fill="#FFD07C" cx="64.8658537" cy="64.8658537" r="64.8658537"></circle>
                                    <circle id="Oval-Copy-11" fill="#18273A" cx="63.2642276" cy="68.0691057" r="12.0121951"></circle>
                                </g>
                                <g id="Group-Copy" transform="translate(30.430894, 28.829268)" fill="#18273A">
                                    <g id="Group-17" transform="translate(0.000000, 0.320325)">
                                        <circle id="Oval-Copy-9" cx="8.64878049" cy="8.64878049" r="7.77322493"></circle>
                                    </g>
                                </g>
                                <g id="Group-Copy-3" transform="translate(78.479675, 28.829268)" fill="#18273A">
                                    <g id="Group-17" transform="translate(0.000000, 0.320325)">
                                        <circle id="Oval-Copy-9" cx="8.64878049" cy="8.64878049" r="7.77322493"></circle>
                                    </g>
                                </g>
                            </g>
                        </g>
                    </g>
                </g>
                <path d="M78.4796748,131.333333 L116.918699,131.333333 L116.918699,131.333333 C116.918699,141.063423 109.030903,148.95122 99.300813,148.95122 L96.097561,148.95122 C86.3674711,148.95122 78.4796748,141.063423 78.4796748,131.333333 Z" id="Rectangle-Copy-4" fill="#FF5A32"></path>
            </g>
        </g>
    </g>
</svg>