<?xml version="1.0" encoding="UTF-8"?>
<svg width="141px" height="249px" viewBox="0 0 141 249" version="1.1" xmlns="http://www.w3.org/2000/svg" xmlns:xlink="http://www.w3.org/1999/xlink">
    <!-- Generator: Sketch 57.1 (83088) - https://sketch.com -->
    <title>Group 4 Copy 4</title>
    <desc>Created with Sketch.</desc>
    <g id="FOOTER" stroke="none" stroke-width="1" fill="none" fill-rule="evenodd">
        <g id="Home-page---Parents-/-Pro-Copy" transform="translate(-531.000000, -1636.000000)">
            <g id="Group-4-Copy-4" transform="translate(603.500000, 1770.500000) rotate(-90.000000) translate(-603.500000, -1770.500000) translate(468.000000, 1698.000000)">
                <polygon id="Fill-6" fill="#FFCFC5" transform="translate(163.366652, 112.280755) rotate(-243.000000) translate(-163.366652, -112.280755) " points="138.907357 126.651484 146.359572 134.626243 187.825948 97.9100257 180.372512 89.9352664"></polygon>
                <polygon id="Fill-10" fill="#22693D" transform="translate(29.201096, 68.674920) rotate(-243.000000) translate(-29.201096, -68.674920) " points="49.5532121 49.3964591 55.4392495 58.498448 8.84837853 87.9533799 2.9629433 78.851391"></polygon>
                <path d="M125.954824,18.6778229 C125.954824,28.5453197 117.823377,36.544316 107.792491,36.544316 C97.7616044,36.544316 89.6295514,28.5453197 89.6295514,18.6778229 C89.6295514,8.81032596 97.7616044,0.811329686 107.792491,0.811329686 C117.823377,0.811329686 125.954824,8.81032596 125.954824,18.6778229" id="Fill-13" fill="#FFD07C"></path>
                <path d="M270.003923,36.8923829 C270.003923,46.7598798 261.87187,54.758876 251.840983,54.758876 C241.810097,54.758876 233.67865,46.7598798 233.67865,36.8923829 C233.67865,27.024886 241.810097,19.0258897 251.840983,19.0258897 C261.87187,19.0258897 270.003923,27.024886 270.003923,36.8923829" id="Fill-19" fill="#AEE9F9"></path>
            </g>
        </g>
    </g>
</svg>