<?xml version="1.0" encoding="UTF-8"?>
<svg width="394px" height="227px" viewBox="0 0 394 227" version="1.1" xmlns="http://www.w3.org/2000/svg" xmlns:xlink="http://www.w3.org/1999/xlink">
    <!-- Generator: Sketch 52.6 (67491) - http://www.bohemiancoding.com/sketch -->
    <title>Gommettes 3</title>
    <desc>Created with Sketch.</desc>
    <g id="Assets" stroke="none" stroke-width="1" fill="none" fill-rule="evenodd">
        <g id="Gomettes" transform="translate(-122.000000, -383.000000)">
            <g id="Gommettes-3" transform="translate(319.000000, 496.500000) rotate(-360.000000) translate(-319.000000, -496.500000) translate(122.000000, 383.000000)">
                <polygon id="Fill-2" fill="#18273A" points="8.73208782 189.796635 39.3056421 163.483761 0.00029991715 153.891425"></polygon>
                <polygon id="Fill-3" fill="#FFD07C" points="154.293218 194.245439 144.748654 199.468473 118.284565 151.219219 127.829128 145.996185"></polygon>
                <polygon id="Fill-5" fill="#FFCFC5" points="378.419324 143.592679 367.97261 140.544412 383.418943 87.7371359 393.865057 90.784804"></polygon>
                <polygon id="Fill-7" fill="#18273A" points="247.757959 168.339841 244.176948 158.074705 296.191579 139.973221 299.77259 150.238357"></polygon>
                <polygon id="Fill-9" fill="#22693D" points="162.766177 111.701202 164.791218 101.020883 218.910667 111.25846 216.885627 121.938778"></polygon>
                <polygon id="Fill-11" fill="#AEE9F9" points="339.481621 226.056157 328.788374 224.032965 339.038343 169.978943 349.731589 172.001536"></polygon>
                <polygon id="Fill-12" fill="#AEE9F9" points="318.129799 0.59898931 312.688102 10.0127911 360.390525 37.5208869 365.832221 28.106486"></polygon>
                <path d="M95.4640487,93.5372312 C95.4640487,103.446496 87.4214704,111.479351 77.5002111,111.479351 C67.5789518,111.479351 59.5357737,103.446496 59.5357737,93.5372312 C59.5357737,83.6279661 67.5789518,75.5951109 77.5002111,75.5951109 C87.4214704,75.5951109 95.4640487,83.6279661 95.4640487,93.5372312" id="Fill-15" fill="#AEE9F9"></path>
                <path d="M296.172204,69.7945962 C296.172204,79.7038612 288.129626,87.7367165 278.208367,87.7367165 C268.286508,87.7367165 260.243929,79.7038612 260.243929,69.7945962 C260.243929,59.8853312 268.286508,51.8524759 278.208367,51.8524759 C288.129626,51.8524759 296.172204,59.8853312 296.172204,69.7945962" id="Fill-19" fill="#22693D"></path>
                <polygon id="Fill-21" fill="#FFD07C" points="159.20742 42.6805345 200.195897 42.6805345 200.195897 1.74101114 159.20742 1.74101114"></polygon>
            </g>
        </g>
    </g>
</svg>