<?xml version="1.0" encoding="UTF-8"?>
<svg width="353px" height="258px" viewBox="0 0 353 258" version="1.1" xmlns="http://www.w3.org/2000/svg" xmlns:xlink="http://www.w3.org/1999/xlink">
    <!-- Generator: Sketch 57.1 (83088) - https://sketch.com -->
    <title>Group 4 Copy 6</title>
    <desc>Created with Sketch.</desc>
    <g id="FOOTER" stroke="none" stroke-width="1" fill="none" fill-rule="evenodd">
        <g id="Home-page---Parents-/-Pro-Copy" transform="translate(-370.000000, -23.000000)">
            <g id="Group-4-Copy-6" transform="translate(542.000000, 153.500000) rotate(-90.000000) translate(-542.000000, -153.500000) translate(410.000000, -31.000000)">
                <polygon id="Fill-3" fill="#FFD07C" transform="translate(211.149514, 78.100392) rotate(-243.000000) translate(-211.149514, -78.100392) " points="229.382807 99.6066499 219.716255 104.827348 192.916221 56.5941334 202.582166 51.3734351"></polygon>
                <polygon id="Fill-6" fill="#FFCFC5" transform="translate(193.366652, 336.280755) rotate(-243.000000) translate(-193.366652, -336.280755) " points="168.907357 350.651484 176.359572 358.626243 217.825948 321.910026 210.372512 313.935266"></polygon>
                <polygon id="Fill-9" fill="#22693D" transform="translate(241.137373, 154.418543) rotate(-243.000000) translate(-241.137373, -154.418543) " points="212.675648 154.641419 214.728784 143.90302 269.599099 154.19627 267.545962 164.934067"></polygon>
                <polygon id="Fill-10" fill="#22693D" transform="translate(59.201096, 237.383091) rotate(-243.000000) translate(-59.201096, -237.383091) " points="79.5532121 218.10463 85.4392495 227.206619 38.8483785 256.661551 32.9629433 247.559562"></polygon>
                <polygon id="Fill-11" fill="#AEE9F9" transform="translate(30.111990, 121.055959) rotate(-243.000000) translate(-30.111990, -121.055959) " points="30.3378946 149.097356 19.4388431 147.074541 29.8860856 93.0145624 40.7851372 95.0373777"></polygon>
                <polygon id="Fill-12" fill="#FFB4A5" transform="translate(116.800422, 32.811199) rotate(-243.000000) translate(-116.800422, -32.811199) " points="95.582005 14.4090319 90.1175542 23.7930112 138.019441 51.2133655 143.483289 41.8293862"></polygon>
                <path d="M155.954824,242.677823 C155.954824,252.54532 147.823377,260.544316 137.792491,260.544316 C127.761604,260.544316 119.629551,252.54532 119.629551,242.677823 C119.629551,232.810326 127.761604,224.81133 137.792491,224.81133 C147.823377,224.81133 155.954824,232.810326 155.954824,242.677823" id="Fill-13" fill="#FFD07C"></path>
                <path d="M145.325273,141.866493 C145.325273,151.73399 137.19322,159.732986 127.16294,159.732986 C117.132053,159.732986 109,151.73399 109,141.866493 C109,131.998996 117.132053,124 127.16294,124 C137.19322,124 145.325273,131.998996 145.325273,141.866493" id="Fill-17" fill="#FFFFFF"></path>
            </g>
        </g>
    </g>
</svg>