<?xml version="1.0" encoding="UTF-8"?>
<svg width="186px" height="271px" viewBox="0 0 186 271" version="1.1" xmlns="http://www.w3.org/2000/svg" xmlns:xlink="http://www.w3.org/1999/xlink">
    <!-- Generator: Sketch 52.6 (67491) - http://www.bohemiancoding.com/sketch -->
    <title>Gommettes 2</title>
    <desc>Created with Sketch.</desc>
    <g id="Assets" stroke="none" stroke-width="1" fill="none" fill-rule="evenodd">
        <g id="Gomettes" transform="translate(-513.000000, -58.000000)">
            <g id="Gommettes-2" transform="translate(595.404112, 190.404112) rotate(-225.000000) translate(-595.404112, -190.404112) translate(447.404112, 56.404112)">
                <polygon id="Fill-6" fill="#AEE9F9" transform="translate(103.134277, 176.425176) rotate(-184.000000) translate(-103.134277, -176.425176) " points="78.6749819 190.795905 86.1271969 198.770664 127.593572 162.054447 120.140137 154.079688"></polygon>
                <polygon id="Fill-7" fill="#22693D" transform="translate(270.553312, 97.404383) rotate(-243.000000) translate(-270.553312, -97.404383) " points="246.145549 111.425081 242.536301 101.278013 294.961075 83.3836844 298.570323 93.5307529"></polygon>
                <path d="M119.325273,251.390951 C119.325273,260.443519 111.864822,267.781902 102.662358,267.781902 C93.4598937,267.781902 86,260.443519 86,251.390951 C86,242.338382 93.4598937,235 102.662358,235 C111.864822,235 119.325273,242.338382 119.325273,251.390951" id="Fill-19" fill="#AEE9F9"></path>
                <polygon id="Fill-10" fill="#FFD07C" transform="translate(31.114153, 143.892383) rotate(-124.000000) translate(-31.114153, -143.892383) " points="51.4662683 124.613922 57.3523057 133.715911 10.7614348 163.170843 4.87599954 154.068854"></polygon>
                <path d="M166.325273,17.8670898 C166.325273,27.7345866 158.19322,35.7335829 148.16294,35.7335829 C138.132053,35.7335829 130,27.7345866 130,17.8670898 C130,7.99959286 138.132053,0 148.16294,0 C158.19322,0 166.325273,7.99959286 166.325273,17.8670898" id="Fill-15" fill="#FFD07C"></path>
                <path d="M184.325273,110.866493 C184.325273,120.73399 176.19322,128.732986 166.162333,128.732986 C156.131447,128.732986 148,120.73399 148,110.866493 C148,100.998996 156.131447,93 166.162333,93 C176.19322,93 184.325273,100.998996 184.325273,110.866493" id="Fill-19" fill="#FFCFC5"></path>
            </g>
        </g>
    </g>
</svg>