<?xml version="1.0" encoding="UTF-8"?>
<svg width="273px" height="334px" viewBox="0 0 273 334" version="1.1" xmlns="http://www.w3.org/2000/svg" xmlns:xlink="http://www.w3.org/1999/xlink">
    <!-- Generator: Sketch 52.6 (67491) - http://www.bohemiancoding.com/sketch -->
    <title>Gommettes 4</title>
    <desc>Created with Sketch.</desc>
    <g id="Assets" stroke="none" stroke-width="1" fill="none" fill-rule="evenodd">
        <g id="Gomettes" transform="translate(-605.000000, -256.000000)">
            <g id="Gommettes-4" transform="translate(745.500000, 415.000000) scale(-1, 1) rotate(-360.000000) translate(-745.500000, -415.000000) translate(605.000000, 239.000000)">
                <polygon id="Fill-1" fill="#22693D" transform="translate(24.768990, 25.760465) rotate(-243.000000) translate(-24.768990, -25.760465) " points="6.09098264 7.79644468 24.6545124 43.7244846 43.4469972 7.79644468"></polygon>
                <polygon id="Fill-4" fill="#FFD07C" transform="translate(91.779665, 116.877154) rotate(-243.000000) translate(-91.779665, -116.877154) " points="119.086055 108.552364 120.24139 119.430234 64.4732745 125.201944 63.3179395 114.323471"></polygon>
                <polygon id="Fill-5" fill="#FFCFC5" transform="translate(194.083769, 327.664444) rotate(-243.000000) translate(-194.083769, -327.664444) " points="191.593817 355.705841 181.18705 352.645172 196.574318 299.623047 206.980488 302.683115"></polygon>
                <path d="M280.325273,255.390951 C280.325273,264.443519 272.864822,271.781902 263.662358,271.781902 C254.459894,271.781902 247,264.443519 247,255.390951 C247,246.338382 254.459894,239 263.662358,239 C272.864822,239 280.325273,246.338382 280.325273,255.390951" id="Fill-19" fill="#AEE9F9"></path>
                <polygon id="Fill-10" fill="#22693D" transform="translate(179.025046, 186.939659) rotate(-243.000000) translate(-179.025046, -186.939659) " points="199.377162 167.661198 205.263199 176.763187 158.672329 206.218119 152.786893 197.11613"></polygon>
            </g>
        </g>
    </g>
</svg>