<?xml version="1.0" encoding="UTF-8"?>
<svg width="796px" height="552px" viewBox="0 0 796 552" version="1.1" xmlns="http://www.w3.org/2000/svg" xmlns:xlink="http://www.w3.org/1999/xlink">
    <!-- Generator: Sketch 52.6 (67491) - http://www.bohemiancoding.com/sketch -->
    <title>Gommettes 5</title>
    <desc>Created with Sketch.</desc>
    <g id="Assets" stroke="none" stroke-width="1" fill="none" fill-rule="evenodd">
        <g id="Gomettes" transform="translate(-82.000000, -58.000000)">
            <g id="Gommettes-5" transform="translate(82.000000, -9.000000)">
                <g id="Gommettes-1" transform="translate(0.000000, 83.000000)">
                    <polygon id="Fill-1" fill="#FFD07C" points="71.4518 78.7862 60.4688 79.0502 58.4878 23.9062 69.4698 23.6432"></polygon>
                    <polygon id="Fill-2" fill="#FFCFC5" points="294.8328 70.8291 297.8528 81.3191 351.4678 67.4301 348.4478 56.9401"></polygon>
                    <polygon id="Fill-3" fill="#22693D" points="122.5314 0 115.8274 8.636 160.0444 42.718 166.7484 34.082"></polygon>
                    <polygon id="Fill-4" fill="#22693D" points="306.4303 195.3575 307.5423 206.1395 252.6573 211.2325 251.5463 200.4505"></polygon>
                    <polygon id="Fill-5" fill="#AEE9F9" points="101.718 267.561 110.511 274.311 144.362 230.886 135.569 224.136"></polygon>
                    <polygon id="Fill-6" fill="#AEE9F9" points="0 125.5473 30.233 171.7253 39.361 165.8453 9.129 119.6653"></polygon>
                    <g id="Group-11" transform="translate(94.000000, 96.311000)">
                        <path d="M135.547,10.2301 C145.415,10.2301 153.414,18.3621 153.414,28.3921 C153.414,38.4231 145.415,46.5551 135.547,46.5551 C125.68,46.5551 117.681,38.4231 117.681,28.3921 C117.681,18.3621 125.68,10.2301 135.547,10.2301" id="Fill-7" fill="#FFD07C"></path>
                        <path d="M18.2989,0.4068 C28.1669,0.4068 36.1659,8.5388 36.1659,18.5688 C36.1659,28.5998 28.1669,36.7318 18.2989,36.7318 C8.4319,36.7318 0.4329,28.5998 0.4329,18.5688 C0.4329,8.5388 8.4319,0.4068 18.2989,0.4068" id="Fill-9" fill="#FFCFC5"></path>
                    </g>
                </g>
                <g id="Gommettes-3" transform="translate(237.000000, 505.500000) rotate(-360.000000) translate(-237.000000, -505.500000) translate(40.000000, 392.000000)">
                    <polygon id="Fill-2" fill="#18273A" points="8.73208782 189.796635 39.3056421 163.483761 0.00029991715 153.891425"></polygon>
                    <polygon id="Fill-3" fill="#FFD07C" points="154.293218 194.245439 144.748654 199.468473 118.284565 151.219219 127.829128 145.996185"></polygon>
                    <polygon id="Fill-5" fill="#FFCFC5" points="378.419324 143.592679 367.97261 140.544412 383.418943 87.7371359 393.865057 90.784804"></polygon>
                    <polygon id="Fill-7" fill="#18273A" points="247.757959 168.339841 244.176948 158.074705 296.191579 139.973221 299.77259 150.238357"></polygon>
                    <polygon id="Fill-9" fill="#22693D" points="162.766177 111.701202 164.791218 101.020883 218.910667 111.25846 216.885627 121.938778"></polygon>
                    <polygon id="Fill-11" fill="#AEE9F9" points="339.481621 226.056157 328.788374 224.032965 339.038343 169.978943 349.731589 172.001536"></polygon>
                    <polygon id="Fill-12" fill="#AEE9F9" points="318.129799 0.59898931 312.688102 10.0127911 360.390525 37.5208869 365.832221 28.106486"></polygon>
                    <path d="M95.4640487,93.5372312 C95.4640487,103.446496 87.4214704,111.479351 77.5002111,111.479351 C67.5789518,111.479351 59.5357737,103.446496 59.5357737,93.5372312 C59.5357737,83.6279661 67.5789518,75.5951109 77.5002111,75.5951109 C87.4214704,75.5951109 95.4640487,83.6279661 95.4640487,93.5372312" id="Fill-15" fill="#AEE9F9"></path>
                    <path d="M296.172204,69.7945962 C296.172204,79.7038612 288.129626,87.7367165 278.208367,87.7367165 C268.286508,87.7367165 260.243929,79.7038612 260.243929,69.7945962 C260.243929,59.8853312 268.286508,51.8524759 278.208367,51.8524759 C288.129626,51.8524759 296.172204,59.8853312 296.172204,69.7945962" id="Fill-19" fill="#22693D"></path>
                    <polygon id="Fill-21" fill="#FFD07C" points="159.20742 42.6805345 200.195897 42.6805345 200.195897 1.74101114 159.20742 1.74101114"></polygon>
                </g>
                <g id="Gommettes-4" transform="translate(663.500000, 424.000000) scale(-1, 1) rotate(-360.000000) translate(-663.500000, -424.000000) translate(523.000000, 248.000000)">
                    <polygon id="Fill-1" fill="#22693D" transform="translate(24.768990, 25.760465) rotate(-243.000000) translate(-24.768990, -25.760465) " points="6.09098264 7.79644468 24.6545124 43.7244846 43.4469972 7.79644468"></polygon>
                    <polygon id="Fill-4" fill="#FFD07C" transform="translate(91.779665, 116.877154) rotate(-243.000000) translate(-91.779665, -116.877154) " points="119.086055 108.552364 120.24139 119.430234 64.4732745 125.201944 63.3179395 114.323471"></polygon>
                    <polygon id="Fill-5" fill="#FFCFC5" transform="translate(194.083769, 327.664444) rotate(-243.000000) translate(-194.083769, -327.664444) " points="191.593817 355.705841 181.18705 352.645172 196.574318 299.623047 206.980488 302.683115"></polygon>
                    <path d="M280.325273,255.390951 C280.325273,264.443519 272.864822,271.781902 263.662358,271.781902 C254.459894,271.781902 247,264.443519 247,255.390951 C247,246.338382 254.459894,239 263.662358,239 C272.864822,239 280.325273,246.338382 280.325273,255.390951" id="Fill-19" fill="#AEE9F9"></path>
                    <polygon id="Fill-10" fill="#22693D" transform="translate(179.025046, 186.939659) rotate(-243.000000) translate(-179.025046, -186.939659) " points="199.377162 167.661198 205.263199 176.763187 158.672329 206.218119 152.786893 197.11613"></polygon>
                </g>
                <g id="Gommettes-2" transform="translate(513.404112, 199.404112) rotate(-225.000000) translate(-513.404112, -199.404112) translate(365.404112, 65.404112)">
                    <polygon id="Fill-6" fill="#AEE9F9" transform="translate(103.134277, 176.425176) rotate(-184.000000) translate(-103.134277, -176.425176) " points="78.6749819 190.795905 86.1271969 198.770664 127.593572 162.054447 120.140137 154.079688"></polygon>
                    <polygon id="Fill-7" fill="#22693D" transform="translate(270.553312, 97.404383) rotate(-243.000000) translate(-270.553312, -97.404383) " points="246.145549 111.425081 242.536301 101.278013 294.961075 83.3836844 298.570323 93.5307529"></polygon>
                    <path d="M119.325273,251.390951 C119.325273,260.443519 111.864822,267.781902 102.662358,267.781902 C93.4598937,267.781902 86,260.443519 86,251.390951 C86,242.338382 93.4598937,235 102.662358,235 C111.864822,235 119.325273,242.338382 119.325273,251.390951" id="Fill-19" fill="#AEE9F9"></path>
                    <polygon id="Fill-10" fill="#FFD07C" transform="translate(31.114153, 143.892383) rotate(-124.000000) translate(-31.114153, -143.892383) " points="51.4662683 124.613922 57.3523057 133.715911 10.7614348 163.170843 4.87599954 154.068854"></polygon>
                    <path d="M166.325273,17.8670898 C166.325273,27.7345866 158.19322,35.7335829 148.16294,35.7335829 C138.132053,35.7335829 130,27.7345866 130,17.8670898 C130,7.99959286 138.132053,0 148.16294,0 C158.19322,0 166.325273,7.99959286 166.325273,17.8670898" id="Fill-15" fill="#FFD07C"></path>
                    <path d="M184.325273,110.866493 C184.325273,120.73399 176.19322,128.732986 166.162333,128.732986 C156.131447,128.732986 148,120.73399 148,110.866493 C148,100.998996 156.131447,93 166.162333,93 C176.19322,93 184.325273,100.998996 184.325273,110.866493" id="Fill-19" fill="#FFCFC5"></path>
                </g>
            </g>
        </g>
    </g>
</svg>