<?xml version="1.0" encoding="UTF-8"?>
<svg width="500px" height="189px" viewBox="0 0 500 189" version="1.1" xmlns="http://www.w3.org/2000/svg" xmlns:xlink="http://www.w3.org/1999/xlink">
    <!-- Generator: Sketch 52.6 (67491) - http://www.bohemiancoding.com/sketch -->
    <title>Ensemble 2</title>
    <desc>Created with Sketch.</desc>
    <g id="Assets" stroke="none" stroke-width="1" fill="none" fill-rule="evenodd">
        <g id="Décors" transform="translate(-56.000000, -231.000000)">
            <g id="Ensemble-2" transform="translate(56.000000, 231.000000)">
                <g id="Group-3" transform="translate(0.000000, 37.800000)" fill="#22693D">
                    <g id="Group-14">
                        <polygon id="Fill-11" points="92.7345133 150.57 46.6511034 60.48 0 150.57"></polygon>
                        <polygon id="Fill-14" points="92.7345133 90.09 46.6511034 0 0 90.09"></polygon>
                    </g>
                </g>
                <g id="Group-22" transform="translate(80.117573, 0.000000)">
                    <polygon id="Fill-1" fill="#FFFFFF" points="0 188.709011 92.9166257 188.709011 92.9166257 99.548083 0 99.548083"></polygon>
                    <polygon id="Fill-2" fill="#FFFFFF" points="97.7981914 188.709011 241.889128 188.709011 241.889128 124.660834 97.7981914 124.660834"></polygon>
                    <polygon id="Fill-3" fill="#FFD07C" points="26.4127319 188.709011 66.5038938 188.709011 66.5038938 140.185936 26.4127319 140.185936"></polygon>
                    <polygon id="Fill-4" fill="#FFD07C" points="163.039439 188.709011 176.647881 188.709011 176.647881 164.44783 163.039439 164.44783"></polygon>
                    <polygon id="Fill-6" fill="#FFCFC5" points="0 99.5259023 92.9166257 99.5259023 46.4579558 35.6938268"></polygon>
                    <polygon id="Fill-7" fill="#FFFFFF" points="244.011631 188.709011 336.927542 188.709011 336.927542 63.8320755 244.011631 63.8320755"></polygon>
                    <polygon id="Fill-8" fill="#AEE9F9" points="270.424363 188.709011 310.515525 188.709011 310.515525 148.671679 270.424363 148.671679"></polygon>
                    <polygon id="Fill-9" fill="#FFD07C" points="309.441418 97.1624038 326.89279 97.1624038 326.89279 76.0407623 309.441418 76.0407623"></polygon>
                    <polygon id="Fill-10" fill="#FFD07C" points="309.441418 130.889275 326.89279 130.889275 326.89279 109.767634 309.441418 109.767634"></polygon>
                    <polygon id="Fill-11" fill="#FFCFC5" points="290.469087 7.13207516e-05 244.011845 63.8321468 336.927757 63.8321468 290.469801 7.13207516e-05"></polygon>
                    <polygon id="Fill-12" fill="#FFCFC5" points="133.643848 80.742583 97.5620166 124.661191 169.72568 124.661191"></polygon>
                    <polygon id="Fill-13" fill="#FFCFC5" points="205.80744 80.742583 169.725608 124.661191 241.889271 124.661191"></polygon>
                    <g id="Group-21" transform="translate(116.075853, 132.999577)" fill="#AEE9F9">
                        <path d="M34.5350183,17.6195864 C34.5350183,26.9775826 26.9384298,34.5639713 17.5678519,34.5639713 C8.19727391,34.5639713 0.600685399,26.9775826 0.600685399,17.6195864 C0.600685399,8.26159019 8.19727391,0.675201509 17.5678519,0.675201509 C26.9384298,0.675201509 34.5350183,8.26159019 34.5350183,17.6195864" id="Fill-14"></path>
                        <path d="M106.69861,17.6195864 C106.69861,26.9775826 99.1020213,34.5639713 89.7314434,34.5639713 C80.3608654,34.5639713 72.7642769,26.9775826 72.7642769,17.6195864 C72.7642769,8.26159019 80.3608654,0.675201509 89.7314434,0.675201509 C99.1020213,0.675201509 106.69861,8.26159019 106.69861,17.6195864" id="Fill-16"></path>
                    </g>
                </g>
                <g id="Arbre" transform="translate(428.000000, 93.000000)">
                    <polygon id="Fill-5" fill="#FFD07C" points="29 96 43 96 43 64 29 64"></polygon>
                    <path d="M72,36 C72,55.881917 55.882489,72 36.0003685,72 C16.117511,72 0,55.881917 0,36 C0,16.118083 16.117511,0 36.0003685,0 C55.882489,0 72,16.118083 72,36" id="Fill-18" fill="#22693D"></path>
                </g>
            </g>
        </g>
    </g>
</svg>