<?xml version="1.0" encoding="UTF-8"?>
<svg width="487px" height="220px" viewBox="0 0 487 220" version="1.1" xmlns="http://www.w3.org/2000/svg" xmlns:xlink="http://www.w3.org/1999/xlink">
    <!-- Generator: Sketch 57.1 (83088) - https://sketch.com -->
    <title>Group 22</title>
    <desc>Created with Sketch.</desc>
    <defs>
        <polygon id="path-1" points="0.514953512 0.503924528 81.6295141 0.503924528 81.6295141 81.6083774 0.514953512 81.6083774"></polygon>
    </defs>
    <g id="FOOTER" stroke="none" stroke-width="1" fill="none" fill-rule="evenodd">
        <g id="Home-page---Parents-/-Pro-Copy" transform="translate(-214.000000, -311.000000)">
            <g id="Group-2-Copy" transform="translate(25.000000, 311.000000)">
                <g id="Group-22" transform="translate(189.000000, 0.000000)">
                    <polygon id="Fill-1" fill="#FFFFFF" points="0 219.661283 108.026486 219.661283 108.026486 115.876075 0 115.876075"></polygon>
                    <polygon id="Fill-2" fill="#FFFFFF" points="113.701879 219.661283 281.22451 219.661283 281.22451 145.107849 113.701879 145.107849"></polygon>
                    <polygon id="Fill-3" fill="#FFD07C" points="30.7079018 219.661283 77.3185843 219.661283 77.3185843 163.179396 30.7079018 163.179396"></polygon>
                    <polygon id="Fill-4" fill="#FFD07C" points="189.552489 219.661283 205.3739 219.661283 205.3739 191.420755 189.552489 191.420755"></polygon>
                    <polygon id="Fill-5" fill="#FFD07C" points="437.961513 219.661283 453.782094 219.661283 453.782094 182.384151 437.961513 182.384151"></polygon>
                    <polygon id="Fill-6" fill="#FFB4A5" points="0 115.850257 108.026486 115.850257 54.0128279 41.5483698"></polygon>
                    <polygon id="Fill-7" fill="#FFFFFF" points="283.692169 219.661283 391.717825 219.661283 391.717825 74.3018868 283.692169 74.3018868"></polygon>
                    <polygon id="Fill-8" fill="#AEE9F9" points="314.40007 219.661283 361.010753 219.661283 361.010753 173.056981 314.40007 173.056981"></polygon>
                    <polygon id="Fill-9" fill="#FFD07C" points="359.761978 113.099094 380.051246 113.099094 380.051246 88.5130566 359.761978 88.5130566"></polygon>
                    <polygon id="Fill-10" fill="#FFD07C" points="359.761978 152.357887 380.051246 152.357887 380.051246 127.771849 359.761978 127.771849"></polygon>
                    <polygon id="Fill-11" fill="#FFB4A5" points="337.704415 8.30188679e-05 283.692418 74.3019698 391.718074 74.3019698 337.705246 8.30188679e-05"></polygon>
                    <polygon id="Fill-12" fill="#FFB4A5" points="155.376664 93.9860755 113.427298 145.108264 197.326029 145.108264"></polygon>
                    <polygon id="Fill-13" fill="#FFB4A5" points="239.275311 93.9860755 197.325946 145.108264 281.224676 145.108264"></polygon>
                    <g id="Group-21" transform="translate(134.951807, 105.925434)">
                        <path d="M40.1510134,69.3984604 C40.1510134,80.291366 31.3190873,89.122083 20.4246903,89.122083 C9.53029331,89.122083 0.698367299,80.291366 0.698367299,69.3984604 C0.698367299,58.5055547 9.53029331,49.6748377 20.4246903,49.6748377 C31.3190873,49.6748377 40.1510134,58.5055547 40.1510134,69.3984604" id="Fill-14" fill="#AEE9F9"></path>
                        <path d="M124.049661,69.3984604 C124.049661,80.291366 115.217735,89.122083 104.323338,89.122083 C93.4289407,89.122083 84.5970147,80.291366 84.5970147,69.3984604 C84.5970147,58.5055547 93.4289407,49.6748377 104.323338,49.6748377 C115.217735,49.6748377 124.049661,58.5055547 124.049661,69.3984604" id="Fill-16" fill="#AEE9F9"></path>
                        <g id="Group-20" transform="translate(269.848261, 0.000000)">
                            <mask id="mask-2" fill="white">
                                <use xlink:href="#path-1"></use>
                            </mask>
                            <g id="Clip-19"></g>
                            <path d="M81.6296802,41.0561509 C81.6296802,63.4521509 63.4717982,81.6083774 41.072732,81.6083774 C18.6728354,81.6083774 0.514953512,63.4521509 0.514953512,41.0561509 C0.514953512,18.6601509 18.6728354,0.503924528 41.072732,0.503924528 C63.4717982,0.503924528 81.6296802,18.6601509 81.6296802,41.0561509" id="Fill-18" fill="#22693D" mask="url(#mask-2)"></path>
                        </g>
                    </g>
                </g>
            </g>
        </g>
    </g>
</svg>