<?xml version="1.0" encoding="UTF-8"?>
<svg width="784px" height="272px" viewBox="0 0 784 272" version="1.1" xmlns="http://www.w3.org/2000/svg" xmlns:xlink="http://www.w3.org/1999/xlink">
    <!-- Generator: Sketch 57.1 (83088) - https://sketch.com -->
    <title>Group 27</title>
    <desc>Created with Sketch.</desc>
    <defs>
        <rect id="path-1" x="0" y="44" width="736" height="196" rx="8"></rect>
        <filter x="-5.4%" y="-16.3%" width="110.9%" height="140.8%" filterUnits="objectBoundingBox" id="filter-2">
            <feOffset dx="0" dy="8" in="SourceAlpha" result="shadowOffsetOuter1"></feOffset>
            <feGaussianBlur stdDeviation="12" in="shadowOffsetOuter1" result="shadowBlurOuter1"></feGaussianBlur>
            <feColorMatrix values="0 0 0 0 0.0941176471   0 0 0 0 0.152941176   0 0 0 0 0.22745098  0 0 0 0.0487715127 0" type="matrix" in="shadowBlurOuter1"></feColorMatrix>
        </filter>
    </defs>
    <g id="FOOTER" stroke="none" stroke-width="1" fill="none" fill-rule="evenodd">
        <g id="Home-page---Parents-/-Pro-Copy" transform="translate(-328.000000, -2664.000000)">
            <g id="Group-29" transform="translate(0.000000, 2593.000000)">
                <g id="Group-27" transform="translate(352.000000, 71.000000)">
                    <g id="Rectangle" fill-rule="nonzero">
                        <use fill="black" fill-opacity="1" filter="url(#filter-2)" xlink:href="#path-1"></use>
                        <use fill="#FFFFFF" xlink:href="#path-1"></use>
                    </g>
                    <path d="M315.325273,239.866493 C315.325273,249.73399 307.19322,257.732986 297.16294,257.732986 C287.132053,257.732986 279,249.73399 279,239.866493 C279,229.998996 287.132053,222 297.16294,222 C307.19322,222 315.325273,229.998996 315.325273,239.866493" id="Fill-17" fill="#FFCFC5"></path>
                    <polygon id="Fill-11" fill="#AEE9F9" transform="translate(195.830575, 44.240371) rotate(-243.000000) translate(-195.830575, -44.240371) " points="196.05648 72.2817685 185.157428 70.2589532 195.604671 16.1989745 206.503722 18.2217898"></polygon>
                    <polygon id="Fill-1-Copy" fill="#22693D" transform="translate(561.900740, 43.847895) rotate(-318.000000) translate(-561.900740, -43.847895) " points="543.222733 25.8838749 561.786263 61.8119148 580.578747 25.8838749"></polygon>
                    <text id="Woonies,-une-platefo" font-family="Graphik-Semibold, Graphik" font-size="28" font-weight="500" line-spacing="36" fill="#18273A">
                        <tspan x="54.302" y="131">Woonies, une plateforme engagée à vos côtés, </tspan>
                        <tspan x="193.882" y="167">dans l’intérêt des enfants.</tspan>
                    </text>
                    <g id="Group-26" transform="translate(324.000000, 0.000000)">
                        <circle id="Oval" fill="#FFD07C" fill-rule="nonzero" cx="44" cy="44" r="44"></circle>
                        <path d="M53.5628398,31.4739751 C55.6865073,30.1132152 59.8618302,29.608633 63.2678688,31.1498213 C65.6325002,32.2200433 68.5417239,34.6698913 68.9696426,40.2638595 C69.8081693,51.2332921 53.0030142,61.3197916 52.2873929,61.7437642 C51.9986517,61.9145881 51.6752892,62 51.3519267,62 C50.9977514,62 50.6439222,61.8974371 50.3375241,61.6943693 C50.2211967,61.6171898 48.375884,60.3864345 45.9562048,58.4089249 C46.8397391,57.6501649 47.7454311,56.8207429 48.6365821,55.9323214 C49.6461377,56.7456215 50.5923365,57.4570447 51.404551,58.0319461 C56.2331769,54.9334475 65.8506141,47.296796 65.3337188,40.5365603 C65.0982943,37.4569278 63.8934748,35.4042969 61.7528429,34.4356087 C59.3400879,33.3437765 56.4177081,33.9118174 55.5217102,34.5223927 C54.9947747,33.3571542 54.3300467,32.3428444 53.5628398,31.4739751 Z M44.2325512,30.0004646 C46.6231486,29.9778253 48.9001883,30.783236 50.6354053,32.2654249 C52.5641552,33.9129493 53.7641278,36.3147745 54.1061857,39.2122634 L54.1061857,39.2122634 L54.144789,39.5938862 C54.4127098,42.7696992 53.3455968,45.8338663 51.6414989,48.6195835 L51.6414989,48.6195835 L51.651539,48.6254149 L51.3613041,49.0870475 C48.1035985,54.1374446 42.7423915,58.2665535 39.781297,60.3114161 L39.781297,60.3114161 C38.5660911,61.1545589 37.7337963,61.6546819 37.5845787,61.743181 C37.0084811,62.0851718 36.2890515,62.0851718 35.7126077,61.7438671 C34.9966402,61.3198945 18.1918313,51.233395 19.030358,40.2639624 C19.4582767,34.6699942 22.3671542,32.2198032 24.7321318,31.1495812 C28.2506895,29.557626 32.5901171,30.1486492 34.64108,31.611629 C33.9278822,32.3769063 33.2977754,33.2454327 32.7760332,34.2134347 L32.7760332,34.2134347 L32.523298,34.5506233 C31.6788857,33.9297573 28.6973036,33.3267284 26.2471577,34.4357116 C24.1065258,35.4043998 22.9017063,37.4570307 22.6659356,40.5370062 C22.1466168,47.3298288 31.8204867,54.9826023 36.6363026,58.0591475 C36.9319681,57.8660273 37.2906443,57.6259134 37.6957129,57.3460092 L37.6957129,57.3460092 C40.511113,55.4041737 45.6617165,51.4429801 48.5342416,46.7518403 L48.5342416,46.7518403 C49.9007424,44.5095194 50.7718131,42.0637877 50.4848029,39.6317767 C50.471993,39.5240685 50.4564135,39.4194474 50.4411801,39.3151694 C50.1964079,37.7276734 49.5112533,36.1147939 48.2635035,35.011299 C47.1989,34.0998952 45.8954099,33.6807249 44.6428131,33.6210394 C44.5725319,33.6179522 44.5019046,33.6155511 44.4302386,33.614522 C44.3959635,33.613836 44.3613423,33.6124639 44.3270673,33.6124639 C44.2692498,33.6124639 44.2110861,33.614522 44.1532686,33.6158941 C44.1103382,33.6172662 44.0674079,33.6179522 44.0241313,33.6200104 C43.9825858,33.6217255 43.9406941,33.6248126 43.8988024,33.6272138 C43.8461781,33.630644 43.7935538,33.6337312 43.7412757,33.6381904 L43.7412757,33.6381904 L43.6613006,33.6464229 C43.5910195,33.6532833 43.5210845,33.6604867 43.4511496,33.6694052 L43.4511496,33.6694052 L43.4379935,33.6711203 C40.7828898,34.0196285 38.0007261,35.9309353 37.5122203,39.6547591 C37.0704531,43.0228712 39.518868,46.918205 42.6617851,50.371043 C41.7682106,51.250546 40.848324,52.0652182 39.9623662,52.7979087 C35.4055172,47.8090276 33.3656331,43.2386307 33.8963768,39.1892811 C34.6808944,33.2111307 39.6898969,30.041627 44.2325512,30.0004646 Z" id="Icon" fill="#FFFFFF"></path>
                    </g>
                </g>
            </g>
        </g>
    </g>
</svg>